<svg width="98" height="40" viewBox="0 0 98 40" fill="none" xmlns="http://www.w3.org/2000/svg">
<g clip-path="url(#clip0_85_1988)">
<path d="M4.45757 31.2538C4.36757 31.2739 4.2946 31.344 4.26784 31.4316C4.26784 31.4391 4.26297 31.4491 4.26054 31.4567L3.66946 33.8229L2.99081 31.2538H2.41676L1.73568 33.8279L1.17135 31.4717L1.16162 31.4266C1.12757 31.3265 1.03757 31.2538 0.928108 31.2538H0.5L1.36108 34.5089L1.37568 34.564C1.37568 34.564 1.37568 34.564 1.37568 34.5665C1.41216 34.6592 1.50216 34.7218 1.60432 34.7218H1.99595L2.70622 32.0501L3.38973 34.7218H3.77405C3.87622 34.7218 3.96378 34.6567 4.0027 34.5665L4.0173 34.5089L4.89054 31.2538H4.46H4.45757Z" fill="#221E1F"/>
<path d="M6.05805 34.7618C5.87562 34.7618 5.70778 34.7343 5.5594 34.6792C5.41102 34.6241 5.28454 34.5465 5.17994 34.4438C5.07535 34.3411 4.99508 34.2134 4.9367 34.0607C4.87832 33.908 4.85156 33.7352 4.85156 33.5449V33.2319C4.85156 33.0366 4.88075 32.8638 4.9367 32.7136C4.99508 32.5634 5.07535 32.4357 5.17994 32.333C5.28454 32.2304 5.41102 32.1527 5.5594 32.0976C5.70778 32.0426 5.87318 32.015 6.05805 32.015C6.24291 32.015 6.40345 32.0426 6.55427 32.0976C6.70264 32.1527 6.83156 32.2304 6.93616 32.333C7.04075 32.4357 7.12102 32.5634 7.1794 32.7136C7.23778 32.8638 7.26697 33.0366 7.26697 33.2319V33.5449C7.26697 33.7377 7.23778 33.9105 7.1794 34.0607C7.12102 34.2134 7.04075 34.3411 6.93616 34.4438C6.83156 34.5465 6.70508 34.6241 6.55427 34.6792C6.40589 34.7343 6.24048 34.7618 6.05805 34.7618ZM6.05805 34.2335C6.14562 34.2335 6.22589 34.221 6.30129 34.1959C6.3767 34.1709 6.43994 34.1308 6.49589 34.0757C6.55183 34.0206 6.59318 33.9505 6.62481 33.8579C6.65643 33.7678 6.67102 33.6601 6.67102 33.5349V33.2419C6.67102 32.989 6.61508 32.8088 6.50562 32.7036C6.39616 32.5984 6.24535 32.5458 6.05805 32.5458C5.87075 32.5458 5.72237 32.5984 5.61291 32.7036C5.50102 32.8088 5.44751 32.989 5.44751 33.2419V33.5349C5.44751 33.6601 5.4621 33.7678 5.49373 33.8579C5.52535 33.948 5.5667 34.0206 5.62264 34.0757C5.67616 34.1308 5.74183 34.1709 5.81724 34.1959C5.89264 34.221 5.97291 34.2335 6.06048 34.2335H6.05805Z" fill="#221E1F"/>
<path d="M9.08654 32.0275C9.02086 32.0175 8.95519 32.0125 8.88951 32.0125C8.70708 32.0125 8.55627 32.0526 8.44438 32.1327C8.33005 32.2128 8.24005 32.3205 8.17195 32.4557H8.16222V32.0701H7.84357C7.70492 32.0701 7.59546 32.1853 7.59546 32.3255V34.7217H7.93843C8.06735 34.7217 8.17195 34.6216 8.18411 34.4914V33.1468C8.18411 33.0591 8.1987 32.9815 8.23032 32.9089C8.25951 32.8363 8.30086 32.7737 8.35195 32.7211C8.40303 32.6685 8.46384 32.626 8.53438 32.5984C8.60492 32.5709 8.68032 32.5559 8.76059 32.5559C8.836 32.5559 8.89681 32.5609 8.94789 32.5709C8.99897 32.5809 9.04519 32.5934 9.08897 32.6135L9.25681 32.0651C9.21059 32.0501 9.15222 32.035 9.08897 32.0275H9.08654Z" fill="#221E1F"/>
<path d="M9.67511 31.0859C9.53646 31.0859 9.427 31.2011 9.427 31.3413V34.7241H9.76754C9.90376 34.7241 10.0157 34.6089 10.0157 34.4687V31.0859H9.67511Z" fill="#221E1F"/>
<path d="M12.3022 31.0861C12.1684 31.0861 12.0614 31.1937 12.0541 31.3289V32.298C12.0346 32.2704 12.0103 32.2379 11.9738 32.2053C11.9398 32.1728 11.896 32.1402 11.8401 32.1127C11.7865 32.0851 11.7209 32.0626 11.643 32.0426C11.5652 32.0225 11.4776 32.0125 11.373 32.0125C11.2174 32.0125 11.0763 32.0401 10.9498 32.0926C10.8233 32.1452 10.7163 32.2203 10.6238 32.318C10.5338 32.4156 10.4657 32.5358 10.4146 32.6786C10.366 32.8213 10.3417 32.9815 10.3417 33.1618V33.63C10.3417 33.9881 10.4244 34.266 10.5874 34.4638C10.7503 34.6616 10.9984 34.7593 11.3268 34.7593C11.4825 34.7593 11.6284 34.7318 11.7622 34.6792C11.896 34.6266 11.9982 34.5365 12.0663 34.4063H12.0809V34.7192H12.3874C12.5236 34.7192 12.6355 34.6041 12.6355 34.4638V31.0811H12.2949L12.3022 31.0861ZM12.0638 33.5975C12.0638 33.6876 12.0492 33.7728 12.0225 33.8504C11.9957 33.928 11.9544 33.9981 11.9033 34.0582C11.8522 34.1183 11.789 34.1634 11.7111 34.1984C11.6357 34.231 11.5482 34.2485 11.4509 34.2485C11.2806 34.2485 11.1492 34.1859 11.0617 34.0632C10.9717 33.9405 10.9279 33.7653 10.9279 33.5424V33.2444C10.9279 33.0241 10.9717 32.8513 11.0617 32.7261C11.1517 32.6009 11.2879 32.5383 11.4752 32.5383C11.5774 32.5383 11.6649 32.5559 11.7403 32.5859C11.8133 32.6185 11.8741 32.6585 11.9228 32.7086C11.9714 32.7587 12.0079 32.8138 12.0298 32.8764C12.0541 32.939 12.0638 33.0016 12.0638 33.0616V33.6V33.5975Z" fill="#221E1F"/>
<path d="M12.6427 34.4663C12.6427 34.6066 12.5308 34.7217 12.3946 34.7217C12.2584 34.7217 12.1465 34.6066 12.1465 34.4663C12.1465 34.3261 12.2584 34.2109 12.3946 34.2109C12.5308 34.2109 12.6427 34.3261 12.6427 34.4663Z" fill="#221E1F"/>
<path d="M16.0287 34.216H14.6665V33.1994H16.1454V32.6986H14.6665V31.7646H15.9971C16.1284 31.7646 16.2354 31.6595 16.2427 31.5268V31.2538H14.3211C14.1849 31.2538 14.073 31.369 14.073 31.5092V34.4714C14.073 34.6116 14.1849 34.7268 14.3211 34.7268H16.2768V34.4714C16.2768 34.3312 16.1649 34.216 16.0287 34.216Z" fill="#221E1F"/>
<path d="M19.113 34.3211L19.0449 34.2059L18.3006 32.9414L18.972 31.8147L19.1082 31.5868L19.3076 31.2513H18.8114C18.7092 31.2513 18.6168 31.3039 18.5657 31.3865L18.5414 31.4316L17.943 32.5333L17.3592 31.4215L17.3519 31.4065C17.3009 31.3139 17.2036 31.2513 17.0941 31.2513H16.5492L17.5076 32.9089L16.7876 34.1633L16.6636 34.3812L16.4641 34.7267H16.9603C17.0674 34.7267 17.1622 34.6691 17.2157 34.5815C17.2157 34.5815 17.2157 34.5815 17.2157 34.579L17.2279 34.5539L17.8822 33.327L18.5609 34.5615L18.5706 34.579C18.6217 34.6666 18.7165 34.7267 18.826 34.7267H19.3441L19.1082 34.3236L19.113 34.3211Z" fill="#221E1F"/>
<path d="M22.0124 31.8497C21.9662 31.727 21.8981 31.6219 21.8032 31.5342C21.7108 31.4441 21.5892 31.3765 21.4456 31.3264C21.2997 31.2763 21.127 31.2513 20.9227 31.2513H19.8986C19.7624 31.2513 19.6505 31.3665 19.6505 31.5067V34.7242H20.0008C20.137 34.7242 20.2489 34.6115 20.2489 34.4688V33.3896H20.9227C21.1197 33.3896 21.29 33.3621 21.4335 33.3045C21.577 33.2469 21.6962 33.1718 21.7935 33.0766C21.8908 32.9815 21.9613 32.8713 22.01 32.7461C22.0562 32.6184 22.0805 32.4857 22.0805 32.343V32.2428C22.0805 32.1026 22.0586 31.9699 22.0124 31.8472V31.8497ZM21.4773 32.3355C21.4773 32.5383 21.4213 32.6785 21.3094 32.7561C21.1975 32.8338 21.0419 32.8713 20.8448 32.8713H20.2513V31.7696H20.8959C20.9811 31.7696 21.0589 31.7771 21.1294 31.7921C21.2 31.8072 21.2632 31.8322 21.3143 31.8697C21.3654 31.9073 21.4067 31.9549 21.4335 32.0175C21.4627 32.0776 21.4748 32.1577 21.4748 32.2528V32.338L21.4773 32.3355Z" fill="#221E1F"/>
<path d="M23.7346 31.2012C23.9243 31.2012 24.1068 31.2288 24.2795 31.2864C24.4522 31.344 24.6054 31.4316 24.7368 31.5518C24.8681 31.672 24.9703 31.8272 25.0481 32.0175C25.1235 32.2078 25.1624 32.4357 25.1624 32.7061V33.2795C25.1624 33.5524 25.1235 33.7828 25.0481 33.9756C24.9727 34.1659 24.8681 34.3211 24.7392 34.4388C24.6103 34.5565 24.4595 34.6441 24.2843 34.6992C24.1116 34.7543 23.9292 34.7818 23.7346 34.7818C23.54 34.7818 23.3576 34.7543 23.1849 34.6992C23.0122 34.6441 22.8589 34.559 22.73 34.4388C22.6011 34.3211 22.4965 34.1659 22.4211 33.9756C22.3432 33.7828 22.3068 33.5524 22.3068 33.2795V32.7061C22.3068 32.4357 22.3457 32.2078 22.4211 32.0175C22.4965 31.8272 22.6011 31.6745 22.7324 31.5518C22.8638 31.4316 23.0146 31.344 23.1873 31.2864C23.36 31.2313 23.5424 31.2012 23.7322 31.2012H23.7346ZM23.7346 34.2159C23.8489 34.2159 23.9584 34.2009 24.0581 34.1709C24.1578 34.1408 24.2454 34.0857 24.3208 34.0106C24.3962 33.933 24.4546 33.8303 24.496 33.6976C24.5373 33.5649 24.5592 33.3997 24.5592 33.2019V32.7837C24.5592 32.5834 24.5373 32.4181 24.496 32.2879C24.4546 32.1552 24.3962 32.0526 24.3208 31.9749C24.2454 31.8973 24.1578 31.8447 24.0581 31.8122C23.9584 31.7821 23.8514 31.7671 23.7346 31.7671C23.6178 31.7671 23.5157 31.7821 23.416 31.8122C23.3162 31.8422 23.2287 31.8973 23.1532 31.9749C23.0778 32.0526 23.0195 32.1552 22.9757 32.2879C22.9319 32.4206 22.91 32.5834 22.91 32.7837V33.2019C22.91 33.4022 22.9319 33.5674 22.9757 33.6976C23.0195 33.8303 23.0778 33.933 23.1532 34.0106C23.2287 34.0882 23.3162 34.1408 23.416 34.1709C23.5157 34.2009 23.6203 34.2159 23.7346 34.2159Z" fill="#221E1F"/>
<path d="M28.3902 34.2183H27.0159L28.0083 33.1867C28.1665 33.024 28.2881 32.8562 28.3708 32.6834C28.4535 32.5107 28.4948 32.3304 28.4948 32.1426V32.095C28.4948 31.9773 28.4729 31.8621 28.4316 31.757C28.3902 31.6493 28.3246 31.5542 28.2346 31.474C28.1446 31.3914 28.0327 31.3263 27.8965 31.2787C27.7602 31.2312 27.5948 31.2061 27.4051 31.2061C27.2324 31.2061 27.084 31.2287 26.9575 31.2787C26.8311 31.3288 26.7216 31.3864 26.6292 31.459C26.5367 31.5316 26.4613 31.6117 26.4005 31.6969C26.3397 31.7845 26.2886 31.8646 26.2497 31.9373L26.6997 32.2402C26.7556 32.1401 26.8116 32.0574 26.87 31.9948C26.9284 31.9297 26.9867 31.8822 27.0451 31.8446C27.1035 31.8096 27.1643 31.7845 27.2251 31.772C27.2859 31.7595 27.3467 31.752 27.41 31.752C27.5851 31.752 27.7092 31.7895 27.7821 31.8646C27.8551 31.9398 27.8916 32.0249 27.8916 32.1175V32.1551C27.8916 32.2027 27.8892 32.2528 27.8819 32.3053C27.8746 32.3579 27.8575 32.413 27.8308 32.4731C27.8016 32.5332 27.7602 32.6033 27.7043 32.6809C27.6483 32.7585 27.5729 32.8487 27.4756 32.9513L26.3397 34.1557L26.3032 34.1933C26.3032 34.1933 26.2911 34.2083 26.2862 34.2158C26.2765 34.2308 26.2692 34.2459 26.2619 34.2609C26.2448 34.2984 26.2351 34.341 26.2351 34.3861V34.7266H28.6213V34.4712C28.6213 34.336 28.5192 34.2258 28.3902 34.2158V34.2183Z" fill="#221E1F"/>
<path d="M31.2898 33.2618C31.2898 33.7551 31.1876 34.1332 30.9858 34.3936C30.7839 34.654 30.4774 34.7842 30.0687 34.7842C29.6601 34.7842 29.356 34.6515 29.1371 34.3886C28.9182 34.1257 28.8112 33.7501 28.8112 33.2618V32.7235C28.8112 32.2352 28.9182 31.8596 29.1371 31.5992C29.3536 31.3388 29.6601 31.2061 30.0566 31.2061C30.453 31.2061 30.762 31.3363 30.9736 31.5992C31.1852 31.8596 31.2922 32.2352 31.2922 32.7235V33.2618H31.2898ZM30.6866 32.7185C30.6866 32.5207 30.6695 32.3579 30.633 32.2377C30.5966 32.115 30.5503 32.0224 30.492 31.9548C30.4336 31.8897 30.3679 31.8446 30.2901 31.8221C30.2147 31.7995 30.1344 31.787 30.0541 31.787C29.9739 31.787 29.8985 31.7995 29.8231 31.8221C29.7452 31.8446 29.6771 31.8897 29.6163 31.9573C29.5555 32.0249 29.5068 32.12 29.4679 32.2427C29.4314 32.3629 29.412 32.5232 29.412 32.7185V33.2668C29.412 33.4646 29.4314 33.6274 29.4703 33.7476C29.5093 33.8703 29.5603 33.9654 29.6236 34.033C29.6868 34.1006 29.7549 34.1457 29.8352 34.1682C29.913 34.1908 29.9909 34.2008 30.0687 34.2008C30.1466 34.2008 30.2268 34.1908 30.3022 34.1682C30.3776 34.1457 30.4433 34.1006 30.4993 34.0355C30.5552 33.9704 30.6014 33.8753 30.6355 33.7551C30.6695 33.6324 30.6866 33.4722 30.6866 33.2693V32.721V32.7185Z" fill="#221E1F"/>
<path d="M33.569 33.1868C33.4619 33.0466 33.299 32.954 33.0727 32.9114C33.17 32.8738 33.2479 32.8238 33.3111 32.7637C33.3744 32.7036 33.423 32.636 33.4619 32.5634C33.4984 32.4907 33.5252 32.4156 33.5398 32.3355C33.5544 32.2579 33.5617 32.1853 33.5617 32.1177V32.0701C33.5617 31.9424 33.5373 31.8247 33.4863 31.7145C33.4352 31.6069 33.3646 31.5167 33.2746 31.4391C33.1846 31.364 33.0752 31.3064 32.9463 31.2638C32.8198 31.2213 32.6738 31.2012 32.5157 31.2012C32.2725 31.2012 32.073 31.2463 31.9173 31.3389C31.7617 31.4316 31.6279 31.5518 31.516 31.702L31.9222 32.0275C31.9976 31.9449 32.0779 31.8748 32.1679 31.8197C32.2579 31.7646 32.3722 31.7371 32.5157 31.7371C32.6592 31.7371 32.7687 31.7671 32.849 31.8272C32.9317 31.8873 32.973 31.9825 32.973 32.1127V32.1502C32.973 32.2253 32.9657 32.2929 32.9511 32.3555C32.9365 32.4181 32.9122 32.4707 32.8733 32.5133C32.8368 32.5559 32.7833 32.5909 32.7176 32.6134C32.6495 32.6385 32.5644 32.6485 32.4573 32.6485H32.2749C32.1606 32.661 32.0682 32.7512 32.0536 32.8688V33.1768H32.506C32.7225 33.1768 32.8782 33.2169 32.973 33.2945C33.0703 33.3721 33.119 33.4973 33.119 33.6676V33.7302C33.119 33.8854 33.0679 34.0056 32.9682 34.0907C32.8684 34.1784 32.7127 34.221 32.5011 34.221C32.433 34.221 32.3698 34.2159 32.309 34.2059C32.2482 34.1959 32.1873 34.1784 32.1265 34.1558C32.0633 34.1308 32 34.0983 31.9319 34.0582C31.8638 34.0156 31.7909 33.9656 31.7106 33.903L31.4163 34.3837C31.5744 34.5164 31.7471 34.6116 31.9271 34.6742C32.1095 34.7368 32.2992 34.7693 32.4963 34.7693C32.6933 34.7693 32.883 34.7418 33.0363 34.6842C33.1895 34.6291 33.3184 34.554 33.4206 34.4613C33.5203 34.3687 33.5982 34.261 33.6468 34.1383C33.6955 34.0156 33.7222 33.8904 33.7222 33.7577V33.6851C33.7222 33.4848 33.6687 33.317 33.5641 33.1743L33.569 33.1868Z" fill="#221E1F"/>
<path d="M36.5 33.2618C36.5 33.7551 36.3978 34.1332 36.1959 34.3936C35.9941 34.654 35.6876 34.7842 35.2789 34.7842C34.8703 34.7842 34.5662 34.6515 34.3473 34.3886C34.1284 34.1257 34.0189 33.7501 34.0189 33.2618V32.7235C34.0189 32.2352 34.1284 31.8596 34.3449 31.5992C34.5614 31.3388 34.8678 31.2061 35.2643 31.2061C35.6608 31.2061 35.9697 31.3363 36.1814 31.5992C36.393 31.8596 36.5 32.2352 36.5 32.7235V33.2618ZM35.8968 32.7185C35.8968 32.5207 35.8797 32.3579 35.8432 32.2377C35.8068 32.115 35.7605 32.0224 35.7022 31.9548C35.6438 31.8897 35.5781 31.8446 35.5003 31.8221C35.4249 31.7995 35.3446 31.787 35.2643 31.787C35.1841 31.787 35.1087 31.7995 35.0332 31.8221C34.9578 31.8446 34.8873 31.8897 34.8265 31.9573C34.7657 32.0249 34.717 32.12 34.6781 32.2427C34.6392 32.3629 34.6222 32.5232 34.6222 32.7185V33.2668C34.6222 33.4646 34.6416 33.6274 34.6805 33.7476C34.7195 33.8703 34.7705 33.9654 34.8314 34.033C34.8922 34.1006 34.9627 34.1457 35.0405 34.1682C35.1184 34.1908 35.1962 34.2008 35.2741 34.2008C35.3519 34.2008 35.4322 34.1908 35.5076 34.1682C35.583 34.1457 35.6486 34.1006 35.7046 34.0355C35.7605 33.9704 35.8068 33.8753 35.8408 33.7551C35.8749 33.6324 35.8919 33.4722 35.8919 33.2693V32.721L35.8968 32.7185Z" fill="#221E1F"/>
<path d="M4.59863 36.0839H5.53998C6.16512 36.0839 6.47647 36.3468 6.47647 36.8776V36.9728C6.47647 37.0454 6.46917 37.1155 6.45215 37.1831C6.43512 37.2507 6.40836 37.3133 6.37188 37.3709C6.33539 37.4285 6.28674 37.4785 6.22593 37.5211C6.16512 37.5637 6.08971 37.5987 6.00215 37.6238C6.18215 37.6538 6.32809 37.7289 6.44242 37.8491C6.55431 37.9693 6.61269 38.1421 6.61269 38.3674V38.4801C6.61269 38.748 6.53485 38.9558 6.38161 39.1086C6.22836 39.2588 5.98998 39.3364 5.66647 39.3364H4.59863V36.0914V36.0839ZM4.88079 36.3593V37.5011H5.54728C5.75161 37.5011 5.90971 37.4635 6.02161 37.3834C6.1335 37.3058 6.18944 37.1656 6.18944 36.9602V36.8801C6.18944 36.6873 6.13593 36.5546 6.0289 36.4745C5.92188 36.3969 5.75161 36.3568 5.52052 36.3568H4.88323L4.88079 36.3593ZM4.88079 39.051H5.64215C5.87323 39.051 6.04593 39.0009 6.15539 38.9058C6.26485 38.8081 6.32079 38.6629 6.32079 38.4726V38.3724C6.32079 38.2748 6.30863 38.1872 6.28431 38.112C6.25998 38.0369 6.2162 37.9743 6.15782 37.9217C6.09701 37.8717 6.01917 37.8316 5.91944 37.8066C5.82215 37.7815 5.69809 37.769 5.55215 37.769H4.88079V39.051Z" fill="#221E1F"/>
<path d="M8.14994 39.0961C8.40535 39.0961 8.59751 39.0059 8.724 38.8256C8.85048 38.6454 8.91372 38.3524 8.91372 37.9468V36.0839H9.19589V38.0645C9.19589 38.5152 9.10345 38.8457 8.92102 39.0585C8.73616 39.2713 8.48075 39.379 8.14994 39.379C7.81913 39.379 7.55886 39.2713 7.37643 39.0585C7.194 38.8457 7.10156 38.5152 7.10156 38.0645V36.0839H7.38372V37.9468C7.38372 38.3524 7.44697 38.6454 7.57345 38.8256C7.69994 39.0059 7.8921 39.0961 8.14994 39.0961Z" fill="#221E1F"/>
<path d="M10.76 39.0861C10.8743 39.0861 10.9765 39.0711 11.0689 39.041C11.1614 39.011 11.2392 38.9709 11.3024 38.9183C11.3657 38.8657 11.4143 38.8056 11.4484 38.738C11.4824 38.6704 11.497 38.6003 11.497 38.5302V38.4351C11.497 38.3599 11.4873 38.2923 11.4654 38.2322C11.4435 38.1722 11.4046 38.1171 11.3462 38.0695C11.2878 38.0194 11.21 37.9743 11.1103 37.9343C11.0106 37.8942 10.8816 37.8542 10.7235 37.8141C10.5508 37.7715 10.4073 37.724 10.293 37.6689C10.1762 37.6138 10.0838 37.5487 10.0157 37.4811C9.94515 37.411 9.8965 37.3308 9.86731 37.2457C9.83812 37.1606 9.82352 37.0679 9.82352 36.9653V36.8626C9.82352 36.7399 9.84785 36.6272 9.89406 36.5271C9.94271 36.4269 10.0084 36.3393 10.0935 36.2667C10.1787 36.1941 10.2808 36.139 10.4 36.0964C10.5192 36.0563 10.6481 36.0363 10.7868 36.0363C10.9862 36.0363 11.1565 36.0614 11.2976 36.1139C11.4387 36.1665 11.5603 36.2316 11.6624 36.3092L11.5287 36.5671C11.4338 36.492 11.3243 36.4319 11.2003 36.3894C11.0787 36.3468 10.94 36.3243 10.7868 36.3243C10.6968 36.3243 10.6116 36.3368 10.5289 36.3593C10.4462 36.3844 10.3757 36.4194 10.3149 36.4645C10.2541 36.5121 10.203 36.5671 10.1665 36.6322C10.13 36.6973 10.113 36.7725 10.113 36.8576V36.9477C10.113 37.0178 10.1251 37.0804 10.147 37.138C10.1714 37.1956 10.2078 37.2457 10.2614 37.2908C10.3149 37.3358 10.3854 37.3784 10.4754 37.416C10.5654 37.456 10.6773 37.4911 10.8111 37.5236C11.0008 37.5712 11.1589 37.6238 11.2854 37.6789C11.4095 37.734 11.5116 37.7991 11.5846 37.8692C11.6576 37.9418 11.7111 38.0219 11.7403 38.1121C11.7695 38.2022 11.7865 38.3074 11.7865 38.4225V38.5252C11.7865 38.6429 11.7622 38.7506 11.716 38.8532C11.6697 38.9559 11.6041 39.046 11.5165 39.1236C11.4314 39.2013 11.3243 39.2614 11.1978 39.3089C11.0714 39.354 10.9278 39.3765 10.7697 39.3765C10.5727 39.3765 10.3903 39.344 10.22 39.2789C10.0497 39.2138 9.89893 39.1261 9.76758 39.016L9.91596 38.7506C10.0643 38.8682 10.2078 38.9509 10.3489 39.0035C10.49 39.056 10.6262 39.0836 10.76 39.0836V39.0861Z" fill="#221E1F"/>
<path d="M14.608 39.3289H14.3016L13.9756 38.3224H12.7278L12.3921 39.3289H12.0978L13.1948 36.0839H13.5183L14.6105 39.3289H14.608ZM12.8153 38.0469H13.8832L13.5962 37.1681C13.5767 37.1155 13.5597 37.0604 13.5426 37.0103C13.5256 36.9602 13.5086 36.9026 13.4891 36.8425C13.4697 36.7799 13.4502 36.7123 13.4283 36.6347C13.4064 36.5596 13.3797 36.467 13.3505 36.3618C13.3237 36.467 13.2994 36.5571 13.2775 36.6347C13.2556 36.7123 13.2362 36.7799 13.2167 36.8425C13.1972 36.9026 13.1802 36.9602 13.1632 37.0103C13.1462 37.0604 13.1291 37.1155 13.1097 37.1681L12.8153 38.0469Z" fill="#221E1F"/>
<path d="M15.0386 36.0839H15.3791L16.734 38.6228C16.7583 38.6679 16.7802 38.713 16.7997 38.7555C16.8191 38.7981 16.8434 38.8557 16.8726 38.9258V36.0864H17.1475V39.3314H16.807L15.4497 36.785C15.4253 36.7374 15.4034 36.6923 15.384 36.6548C15.3645 36.6172 15.3402 36.5621 15.3134 36.492V39.3314H15.0386V36.0864V36.0839Z" fill="#221E1F"/>
<path d="M17.8506 38.9884H18.2106L17.9162 40H17.6779L17.8506 38.9884Z" fill="#221E1F"/>
<path d="M20.7184 37.471L22.0246 39.3289H21.6573L20.5165 37.6989L20.1394 38.1271V39.3289H19.8524V36.0839H20.1394V37.7239L21.5624 36.0839H21.9467L20.7184 37.471Z" fill="#221E1F"/>
<path d="M23.399 36.0363C23.5814 36.0363 23.7444 36.0689 23.8854 36.1365C24.0265 36.2041 24.1482 36.3017 24.2455 36.4269C24.3427 36.5521 24.4182 36.7049 24.4692 36.8851C24.5203 37.0629 24.5471 37.2632 24.5471 37.4861V37.9318C24.5471 38.1521 24.5203 38.3549 24.4692 38.5327C24.4182 38.7105 24.3427 38.8632 24.2455 38.9884C24.1482 39.1136 24.0265 39.2113 23.8854 39.2789C23.7444 39.3465 23.5814 39.3815 23.399 39.3815C23.2165 39.3815 23.0536 39.349 22.9125 39.2789C22.7714 39.2113 22.6498 39.1161 22.5525 38.9884C22.4552 38.8632 22.3798 38.7105 22.3287 38.5327C22.2776 38.3549 22.2509 38.1546 22.2509 37.9318V37.4861C22.2509 37.2632 22.2752 37.0629 22.3263 36.8851C22.3773 36.7074 22.4503 36.5546 22.55 36.4269C22.6473 36.3017 22.769 36.2041 22.9125 36.1365C23.056 36.0689 23.219 36.0363 23.4014 36.0363H23.399ZM23.399 39.0961C23.6641 39.0961 23.8733 38.9959 24.0265 38.7931C24.1798 38.5903 24.2576 38.2948 24.2576 37.9042V37.5136C24.2576 37.123 24.1798 36.8276 24.0265 36.6247C23.8733 36.4219 23.6617 36.3218 23.399 36.3218C23.1363 36.3218 22.9246 36.4219 22.7714 36.6247C22.6182 36.8276 22.5403 37.123 22.5403 37.5136V37.9042C22.5403 38.2948 22.6182 38.5903 22.7714 38.7931C22.9246 38.9959 23.1363 39.0961 23.399 39.0961Z" fill="#221E1F"/>
<path d="M26.2887 37.9242C26.2692 37.9242 26.2522 37.9292 26.2327 37.9292H25.4397V39.3289H25.1527V36.0839H26.1719C26.3203 36.0839 26.4492 36.1064 26.566 36.149C26.6803 36.194 26.7776 36.2541 26.8578 36.3343C26.9381 36.4144 26.9989 36.507 27.0403 36.6147C27.0816 36.7224 27.1011 36.84 27.1011 36.9652V37.0328C27.1011 37.2307 27.0524 37.4009 26.9576 37.5436C26.8627 37.6864 26.7314 37.7915 26.5684 37.8566L27.1619 39.3289H26.8554L26.2862 37.9242H26.2887ZM25.4422 36.3668V37.6463H26.0892C26.3446 37.6463 26.5295 37.5912 26.6438 37.4835C26.7557 37.3734 26.8141 37.2206 26.8141 37.0228V36.9778C26.8141 36.79 26.7581 36.6397 26.6487 36.5321C26.5368 36.4244 26.3665 36.3693 26.1354 36.3693H25.4446L25.4422 36.3668Z" fill="#221E1F"/>
<path d="M29.5092 36.0839V36.3643H28.0205V37.5261H29.4241V37.8066H28.0205V39.0535H29.5384V39.3314H27.7335V36.0864H29.5092V36.0839Z" fill="#221E1F"/>
<path d="M32.4014 39.3289H32.0949L31.7665 38.3224H30.5187L30.183 39.3289H29.8887L30.9857 36.0839H31.3092L32.4014 39.3289ZM30.6087 38.0469H31.6765L31.3895 37.1681C31.37 37.1155 31.353 37.0604 31.336 37.0103C31.3189 36.9602 31.3019 36.9026 31.2825 36.8425C31.263 36.7799 31.2435 36.7123 31.2216 36.6347C31.1998 36.5596 31.173 36.467 31.1438 36.3618C31.1171 36.467 31.0927 36.5571 31.0708 36.6347C31.0489 36.7123 31.0295 36.7799 31.01 36.8425C30.9906 36.9026 30.9735 36.9602 30.9565 37.0103C30.9395 37.0604 30.9225 37.1155 30.903 37.1681L30.6087 38.0469Z" fill="#221E1F"/>
<path d="M13.1097 1.19937C13.1097 0.535837 13.6303 0 14.2749 0C14.9195 0 15.4424 0.538341 15.4424 1.19937C15.4424 1.86041 14.9195 2.39875 14.2749 2.39875C13.6303 2.39875 13.1097 1.86291 13.1097 1.19937Z" fill="#0047BA"/>
<path d="M14.2748 6.04693C12.4383 6.04693 10.5994 5.3258 9.20077 3.88605C8.74834 3.42033 8.74834 2.66414 9.20077 2.19842C9.65321 1.73269 10.3878 1.73269 10.8402 2.19842C12.7351 4.14896 15.817 4.14896 17.7119 2.19842C18.1643 1.73269 18.8989 1.73269 19.3513 2.19842C19.8037 2.66414 19.8037 3.42033 19.3513 3.88605C17.9527 5.3258 16.1137 6.04693 14.2773 6.04693H14.2748Z" fill="#0047BA"/>
<path d="M23.951 4.8851C23.951 5.54864 23.4305 6.08448 22.7859 6.08448C22.1413 6.08448 21.6207 5.54864 21.6207 4.8851C21.6207 4.22157 22.1437 3.68573 22.7859 3.68573C23.428 3.68573 23.951 4.22407 23.951 4.8851Z" fill="#0047BA"/>
<path d="M18.5316 4.23412C18.2349 4.23412 17.9381 4.11894 17.7119 3.88608C17.2595 3.42035 17.2595 2.66417 17.7119 2.19844C20.5092 -0.681056 25.0627 -0.681056 27.86 2.19844C28.3124 2.66417 28.3124 3.42035 27.86 3.88608C27.4076 4.35181 26.673 4.35181 26.2205 3.88608C24.3257 1.93553 21.2438 1.93553 19.3489 3.88608C19.1227 4.11894 18.8259 4.23412 18.5292 4.23412H18.5316Z" fill="#0047BA"/>
<path d="M13.1097 20.3493C13.1097 19.6857 13.6303 19.1499 14.2749 19.1499C14.9195 19.1499 15.4424 19.6857 15.4424 20.3493C15.4424 21.0128 14.9195 21.5486 14.2749 21.5486C13.6303 21.5486 13.1097 21.0103 13.1097 20.3493Z" fill="#3CB4E5"/>
<path d="M14.2748 25.1943C12.4383 25.1943 10.5994 24.4732 9.20077 23.0335C8.74834 22.5677 8.74834 21.8115 9.20077 21.3458C9.65321 20.8801 10.3878 20.8801 10.8402 21.3458C12.7351 23.2964 15.817 23.2964 17.7119 21.3458C18.1643 20.8801 18.8989 20.8801 19.3513 21.3458C19.8037 21.8115 19.8037 22.5677 19.3513 23.0335C17.9527 24.4732 16.1137 25.1943 14.2773 25.1943H14.2748Z" fill="#3CB4E5"/>
<path d="M23.951 24.0325C23.951 24.696 23.4305 25.2319 22.7859 25.2319C22.1413 25.2319 21.6207 24.696 21.6207 24.0325C21.6207 23.369 22.1437 22.8331 22.7859 22.8331C23.428 22.8331 23.951 23.3715 23.951 24.0325Z" fill="#3CB4E5"/>
<path d="M18.5316 23.384C18.2349 23.384 17.9381 23.2688 17.7119 23.0335C17.2595 22.5678 17.2595 21.8116 17.7119 21.3458C20.5092 18.4663 25.0627 18.4663 27.86 21.3458C28.3124 21.8116 28.3124 22.5678 27.86 23.0335C27.4076 23.4992 26.673 23.4992 26.2205 23.0335C24.3257 21.0829 21.2438 21.0829 19.3489 23.0335C19.1227 23.2663 18.8259 23.384 18.5292 23.384H18.5316Z" fill="#3CB4E5"/>
<path d="M17.364 12.6172C17.364 11.9537 17.887 11.4178 18.5291 11.4178C19.1713 11.4178 19.6943 11.9562 19.6943 12.6172C19.6943 13.2783 19.1713 13.8166 18.5291 13.8166C17.887 13.8166 17.364 13.2783 17.364 12.6172Z" fill="#B9C6D7"/>
<path d="M28.2078 16.8313C28.2078 17.4949 27.6873 18.0307 27.0427 18.0307C26.3981 18.0307 25.8776 17.4949 25.8776 16.8313C25.8776 16.1678 26.4005 15.632 27.0427 15.632C27.6849 15.632 28.2078 16.1678 28.2078 16.8313Z" fill="#B9C6D7"/>
<path d="M22.786 16.1828C22.4893 16.1828 22.1925 16.0676 21.9663 15.8347C21.5138 15.369 21.5138 14.6128 21.9663 14.1471C24.766 11.2676 29.3171 11.2676 32.1168 14.1471C32.5693 14.6128 32.5693 15.369 32.1168 15.8347C31.6644 16.3005 30.9298 16.3005 30.4774 15.8347C28.5825 13.8842 25.5006 13.8842 23.6057 15.8347C23.3795 16.0676 23.0828 16.1828 22.786 16.1828Z" fill="#B9C6D7"/>
<path d="M11.1857 16.8313C11.1857 17.4949 10.6628 18.0307 10.0206 18.0307C9.37844 18.0307 8.85547 17.4949 8.85547 16.8313C8.85547 16.1678 9.37844 15.632 10.0206 15.632C10.6628 15.632 11.1857 16.1678 11.1857 16.8313Z" fill="#B9C6D7"/>
<path d="M5.76623 16.1828C5.46947 16.1828 5.17272 16.0676 4.9465 15.8348C4.49407 15.369 4.49407 14.6128 4.9465 14.1471C7.7438 11.2676 12.2973 11.2676 15.097 14.1471C15.5495 14.6128 15.5495 15.369 15.097 15.8348C14.6446 16.3005 13.91 16.3005 13.4576 15.8348C11.5627 13.8842 8.48083 13.8842 6.58596 15.8348C6.35975 16.0676 6.06299 16.1828 5.76623 16.1828Z" fill="#B9C6D7"/>
<path d="M18.5317 17.9931C16.6927 17.9931 14.8563 17.272 13.4576 15.8322C13.0052 15.3665 13.0052 14.6103 13.4576 14.1446C13.91 13.6789 14.6446 13.6789 15.0971 14.1446C16.9919 16.0951 20.0738 16.0951 21.9687 14.1446C22.4211 13.6789 23.1557 13.6789 23.6082 14.1446C24.0606 14.6103 24.0606 15.3665 23.6082 15.8322C22.2095 17.272 20.3706 17.9931 18.5341 17.9931H18.5317Z" fill="#B9C6D7"/>
<path d="M8.85547 8.40311C8.85547 7.73957 9.37601 7.20374 10.0206 7.20374C10.6652 7.20374 11.1857 7.74208 11.1857 8.40311C11.1857 9.06414 10.6628 9.60248 10.0206 9.60248C9.37844 9.60248 8.85547 9.06414 8.85547 8.40311Z" fill="#00ADBB"/>
<path d="M10.0206 13.2482C8.18164 13.2482 6.34515 12.5295 4.9465 11.0898C4.49407 10.6241 4.49407 9.86788 4.9465 9.40215C5.39893 8.93642 6.13353 8.93642 6.58596 9.40215C8.48083 11.3527 11.5627 11.3527 13.4576 9.40215C13.91 8.93642 14.6446 8.93642 15.097 9.40215C15.5495 9.86788 15.5495 10.6241 15.097 11.0898C13.6984 12.5295 11.8595 13.2482 10.023 13.2482H10.0206Z" fill="#00ADBB"/>
<path d="M25.8751 8.40311C25.8751 7.73957 26.3957 7.20374 27.0403 7.20374C27.6849 7.20374 28.2054 7.74208 28.2054 8.40311C28.2054 9.06414 27.6824 9.60248 27.0403 9.60248C26.3981 9.60248 25.8751 9.06414 25.8751 8.40311Z" fill="#00ADBB"/>
<path d="M27.0403 13.2482C25.2038 13.2482 23.3649 12.5295 21.9663 11.0898C21.5138 10.6241 21.5138 9.86788 21.9663 9.40215C22.4187 8.93642 23.1533 8.93642 23.6057 9.40215C25.5006 11.3527 28.5825 11.3527 30.4774 9.40215C30.9298 8.93642 31.6644 8.93642 32.1168 9.40215C32.5693 9.86788 32.5693 10.6241 32.1168 11.0898C30.7182 12.5295 28.8793 13.2482 27.0428 13.2482H27.0403Z" fill="#00ADBB"/>
<path d="M14.2749 11.4379C13.9781 11.4379 13.6814 11.3227 13.4552 11.0898C13.0027 10.6241 13.0027 9.86791 13.4552 9.40218C16.2525 6.52268 20.806 6.52268 23.6033 9.40218C24.0557 9.86791 24.0557 10.6241 23.6033 11.0898C23.1508 11.5555 22.4163 11.5555 21.9638 11.0898C20.069 9.13927 16.9871 9.13927 15.0922 11.0898C14.866 11.3227 14.5692 11.4379 14.2725 11.4379H14.2749Z" fill="#00ADBB"/>
</g>
<rect x="48.5" y="6" width="1" height="28" fill="#E1E1E1"/>
<path d="M66.7957 26.5499C65.7962 26.0851 64.972 25.7074 64.972 24.9463C64.972 24.3653 65.4396 23.9412 66.3631 23.9412C66.6667 23.9356 66.9701 23.9589 67.2691 24.0109C67.4155 24.0396 67.5642 24.0551 67.7133 24.0574C68.52 24.0574 68.9759 23.581 69.2798 22.6746L69.4084 22.3028C68.4021 21.897 67.3264 21.6879 66.2404 21.687C63.499 21.687 62.0845 23.4299 62.0845 25.2484C62.0594 26.0152 62.3242 26.7636 62.8268 27.3458C63.445 27.9815 64.1868 28.4856 65.0071 28.8274C66.1352 29.4084 67.1522 29.786 67.1522 30.5994C67.1522 31.3257 66.3982 31.7614 65.3987 31.7614C64.4251 31.7132 63.4815 31.4106 62.6632 30.8841L61.5 32.9641C62.7317 33.6708 64.1347 34.0285 65.5565 33.9982C68.105 33.9982 70.0397 32.5399 70.0397 30.3031C70.0397 28.0663 68.2511 27.2471 66.7957 26.5499Z" fill="#EA002C"/>
<path d="M76.7848 27.5898L81.42 21.9425H78.1175L74.4234 26.8171H74.3591V21.9425H71.647V33.8878H71.8106C72.9797 33.8878 74.3883 33.3474 74.3883 31.3953V28.6588H74.4409L78.2052 33.7483H81.6713L76.7848 27.5898Z" fill="#EA002C"/>
<path d="M81.5718 9.13177C80.6132 9.31188 79.1929 10.1776 79.1987 11.7056C79.1987 13.0942 80.3677 13.9308 80.3677 15.7725C80.3742 16.3358 80.2318 16.8908 79.9549 17.3822C79.6779 17.8737 79.2761 18.2842 78.7896 18.5729C79.1227 18.5439 79.4851 18.5265 79.8884 18.5265C80.3477 18.5208 80.8067 18.548 81.262 18.6078L85.5582 13.3788C84.4731 11.7551 83.1263 10.3202 81.5718 9.13177Z" fill="#EA002C"/>
<path d="M85.1841 23.2846C85.7219 22.448 85.7686 21.1175 85.8388 19.758C85.8855 18.4914 86.1544 17.5328 87.8612 17.5328C88.2353 17.5328 88.5977 17.5793 89.2523 17.5793C91.0652 17.5725 92.8424 17.0787 94.396 16.15C91.7449 14.4545 88.6898 13.4864 85.5407 13.3438C85.2952 14.0294 83.3897 19.2874 83.2494 19.7348C83.5414 20.0837 83.7997 20.4591 84.0209 20.8561C84.4947 21.622 84.8846 22.4362 85.1841 23.2846Z" fill="#EA002C"/>
<path d="M76.113 18.9911C75.8968 18.9911 75.7857 18.8459 75.7565 18.6019C75.7273 18.3579 74.6518 8.57971 74.4881 7.09818C74.4881 6.88321 74.4121 6.51718 74.4121 6.34869C74.4071 6.30417 74.4117 6.25909 74.4257 6.21649C74.4397 6.17389 74.4627 6.13476 74.4931 6.10174C74.5236 6.06871 74.5608 6.04255 74.6023 6.02502C74.6438 6.00749 74.6885 5.99899 74.7336 6.0001C75.2421 6.0001 78.0186 6.645 80.9645 8.69591C80.3061 8.85998 79.719 9.23176 79.2911 9.7555C78.8633 10.2792 78.6178 10.9267 78.5914 11.6009C78.5914 13.2102 79.7604 14.0934 79.7604 15.7085C79.7662 18.3579 76.7326 18.9911 76.113 18.9911Z" fill="#F47725"/>
<path d="M85.4299 24.0109C85.4646 24.1139 85.5097 24.2131 85.5644 24.3072C85.587 24.3576 85.624 24.4004 85.6707 24.4303C85.7174 24.4602 85.7718 24.476 85.8274 24.4757C85.9134 24.4707 85.9972 24.4469 86.0729 24.4059C86.3009 24.3072 95.2731 20.1531 96.6233 19.5314C96.822 19.4384 97.2078 19.2758 97.313 19.2002C97.3671 19.1755 97.4133 19.1364 97.4463 19.0871C97.4793 19.0379 97.4979 18.9805 97.5001 18.9213C97.4997 18.8576 97.4815 18.7952 97.4475 18.7412C96.7329 17.8926 95.8934 17.1561 94.9575 16.5567C93.2604 17.5862 91.3165 18.144 89.3286 18.1719C88.674 18.1719 88.5278 18.1312 88.0778 18.1312C86.7743 18.1312 86.447 18.7122 86.4002 19.8277C86.4002 20.0427 86.4002 20.3332 86.371 20.6527C86.3301 21.6404 86.2132 23.0464 85.4299 24.0109Z" fill="#F47725"/>
<defs>
<clipPath id="clip0_85_1988">
<rect width="36" height="40" fill="white" transform="translate(0.5)"/>
</clipPath>
</defs>
</svg>
