<svg width="272" height="46" viewBox="0 0 272 46" fill="none" xmlns="http://www.w3.org/2000/svg">
<path d="M4.61716 35.1602C4.51216 35.1827 4.42703 35.2616 4.39581 35.3602C4.39581 35.3686 4.39014 35.3799 4.3873 35.3883L3.6977 38.0503L2.90595 35.1602H2.23622L1.44162 38.0559L0.783243 35.4052L0.771892 35.3545C0.732162 35.2418 0.627162 35.1602 0.49946 35.1602H0L1.00459 38.8221L1.02162 38.8841C1.02162 38.8841 1.02162 38.8841 1.02162 38.8869C1.06419 38.9911 1.16919 39.0616 1.28838 39.0616H1.74527L2.57392 36.0559L3.37135 39.0616H3.81973C3.93892 39.0616 4.04108 38.9883 4.08649 38.8869L4.10351 38.8221L5.1223 35.1602H4.62H4.61716Z" fill="#221E1F"/>
<path d="M6.48447 39.1058C6.27163 39.1058 6.07582 39.0748 5.90272 39.0128C5.72961 38.9508 5.58204 38.8635 5.46001 38.748C5.33799 38.6325 5.24434 38.4889 5.17623 38.317C5.10812 38.1452 5.0769 37.9508 5.0769 37.7368V37.3846C5.0769 37.1649 5.11096 36.9706 5.17623 36.8015C5.24434 36.6325 5.33799 36.4889 5.46001 36.3734C5.58204 36.2579 5.72961 36.1706 5.90272 36.1086C6.07582 36.0466 6.2688 36.0156 6.48447 36.0156C6.70015 36.0156 6.88744 36.0466 7.06339 36.1086C7.2365 36.1706 7.3869 36.2579 7.50893 36.3734C7.63096 36.4889 7.72461 36.6325 7.79272 36.8015C7.86082 36.9706 7.89488 37.1649 7.89488 37.3846V37.7368C7.89488 37.9537 7.86082 38.148 7.79272 38.317C7.72461 38.4889 7.63096 38.6325 7.50893 38.748C7.3869 38.8635 7.23934 38.9508 7.06339 39.0128C6.89028 39.0748 6.69731 39.1058 6.48447 39.1058ZM6.48447 38.5114C6.58663 38.5114 6.68028 38.4973 6.76826 38.4691C6.85623 38.441 6.93001 38.3959 6.99528 38.3339C7.06055 38.272 7.1088 38.1931 7.14569 38.0889C7.18258 37.9875 7.19961 37.8663 7.19961 37.7255V37.3959C7.19961 37.1114 7.13434 36.9086 7.00663 36.7903C6.87893 36.672 6.70299 36.6128 6.48447 36.6128C6.26596 36.6128 6.09285 36.672 5.96515 36.7903C5.83461 36.9086 5.77217 37.1114 5.77217 37.3959V37.7255C5.77217 37.8663 5.7892 37.9875 5.82609 38.0889C5.86299 38.1903 5.91123 38.272 5.9765 38.3339C6.03893 38.3959 6.11555 38.441 6.20353 38.4691C6.2915 38.4973 6.38515 38.5114 6.48731 38.5114H6.48447Z" fill="#221E1F"/>
<path d="M10.0177 36.0286C9.94105 36.0174 9.86443 36.0117 9.78781 36.0117C9.57497 36.0117 9.39902 36.0568 9.26848 36.1469C9.1351 36.2371 9.0301 36.3582 8.95064 36.5103H8.93929V36.0765H8.56754C8.40578 36.0765 8.27808 36.2061 8.27808 36.3638V39.0596H8.67821C8.82862 39.0596 8.95064 38.9469 8.96483 38.8005V37.2878C8.96483 37.1892 8.98186 37.1019 9.01875 37.0202C9.05281 36.9385 9.10105 36.8681 9.16064 36.8089C9.22024 36.7497 9.29118 36.7019 9.37348 36.6709C9.45578 36.6399 9.54375 36.623 9.6374 36.623C9.72537 36.623 9.79632 36.6286 9.85591 36.6399C9.91551 36.6512 9.96943 36.6652 10.0205 36.6878L10.2163 36.0709C10.1624 36.054 10.0943 36.0371 10.0205 36.0286H10.0177Z" fill="#221E1F"/>
<path d="M10.7043 34.9688C10.5425 34.9688 10.4148 35.0983 10.4148 35.2561V39.0617H10.8121C10.971 39.0617 11.1016 38.9321 11.1016 38.7744V34.9688H10.7043Z" fill="#221E1F"/>
<path d="M13.7692 34.9705C13.6132 34.9705 13.4883 35.0916 13.4798 35.2437V36.3339C13.4571 36.3029 13.4287 36.2663 13.3861 36.2296C13.3464 36.193 13.2953 36.1564 13.23 36.1254C13.1676 36.0944 13.091 36.0691 13.0002 36.0465C12.9094 36.024 12.8072 36.0127 12.6852 36.0127C12.5036 36.0127 12.339 36.0437 12.1914 36.1029C12.0438 36.162 11.919 36.2465 11.8111 36.3564C11.7061 36.4663 11.6267 36.6015 11.5671 36.762C11.5103 36.9226 11.4819 37.1029 11.4819 37.3057V37.8324C11.4819 38.2353 11.5784 38.5479 11.7686 38.7705C11.9587 38.993 12.2481 39.1029 12.6313 39.1029C12.8129 39.1029 12.9831 39.0719 13.1392 39.0127C13.2953 38.9536 13.4145 38.8522 13.494 38.7057H13.511V39.0578H13.8686C14.0275 39.0578 14.158 38.9282 14.158 38.7705V34.9648H13.7607L13.7692 34.9705ZM13.4911 37.7958C13.4911 37.8972 13.4741 37.993 13.4429 38.0803C13.4117 38.1677 13.3634 38.2465 13.3038 38.3141C13.2442 38.3817 13.1704 38.4325 13.0796 38.4719C12.9917 38.5085 12.8895 38.5282 12.776 38.5282C12.5773 38.5282 12.4241 38.4578 12.3219 38.3198C12.2169 38.1817 12.1659 37.9846 12.1659 37.7339V37.3986C12.1659 37.1508 12.2169 36.9564 12.3219 36.8155C12.4269 36.6747 12.5859 36.6043 12.8044 36.6043C12.9236 36.6043 13.0257 36.624 13.1137 36.6578C13.1988 36.6944 13.2698 36.7395 13.3265 36.7958C13.3833 36.8522 13.4259 36.9141 13.4514 36.9846C13.4798 37.055 13.4911 37.1254 13.4911 37.193V37.7986V37.7958Z" fill="#221E1F"/>
<path d="M14.1666 38.7717C14.1666 38.9294 14.036 39.059 13.8771 39.059C13.7182 39.059 13.5876 38.9294 13.5876 38.7717C13.5876 38.6139 13.7182 38.4844 13.8771 38.4844C14.036 38.4844 14.1666 38.6139 14.1666 38.7717Z" fill="#221E1F"/>
<path d="M18.1168 38.4925H16.5276V37.3489H18.253V36.7855H16.5276V35.7348H18.0799C18.2332 35.7348 18.358 35.6165 18.3666 35.4672V35.1602H16.1247C15.9657 35.1602 15.8352 35.2897 15.8352 35.4475V38.7799C15.8352 38.9376 15.9657 39.0672 16.1247 39.0672H18.4063V38.7799C18.4063 38.6221 18.2757 38.4925 18.1168 38.4925Z" fill="#221E1F"/>
<path d="M21.7152 38.6098L21.6357 38.4802L20.7673 37.0577L21.5506 35.7901L21.7095 35.5337L21.9422 35.1562H21.3633C21.2441 35.1562 21.1362 35.2154 21.0766 35.3084L21.0483 35.3591L20.3502 36.5985L19.6691 35.3478L19.6606 35.3309C19.601 35.2267 19.4875 35.1562 19.3598 35.1562H18.7241L19.8422 37.021L19.0022 38.4323L18.8575 38.6774L18.6248 39.0661H19.2037C19.3285 39.0661 19.4392 39.0013 19.5016 38.9027C19.5016 38.9027 19.5016 38.9027 19.5016 38.8999L19.5158 38.8717L20.2792 37.4915L21.071 38.8802L21.0823 38.8999C21.1419 38.9985 21.2526 39.0661 21.3803 39.0661H21.9848L21.7095 38.6126L21.7152 38.6098Z" fill="#221E1F"/>
<path d="M25.0978 35.8295C25.0439 35.6915 24.9644 35.5732 24.8538 35.4746C24.7459 35.3732 24.604 35.2971 24.4366 35.2408C24.2663 35.1844 24.0649 35.1562 23.8265 35.1562H22.6317C22.4728 35.1562 22.3423 35.2858 22.3423 35.4436V39.0633H22.7509C22.9099 39.0633 23.0404 38.9365 23.0404 38.776V37.5619H23.8265C24.0563 37.5619 24.255 37.5309 24.4224 37.4661C24.5899 37.4013 24.7289 37.3168 24.8424 37.2098C24.9559 37.1027 25.0382 36.9788 25.095 36.8379C25.1489 36.6943 25.1773 36.545 25.1773 36.3844V36.2717C25.1773 36.114 25.1517 35.9647 25.0978 35.8267V35.8295ZM24.4735 36.376C24.4735 36.6041 24.4082 36.7619 24.2777 36.8492C24.1471 36.9365 23.9655 36.9788 23.7357 36.9788H23.0432V35.7393H23.7953C23.8946 35.7393 23.9854 35.7478 24.0677 35.7647C24.15 35.7816 24.2238 35.8098 24.2834 35.852C24.343 35.8943 24.3912 35.9478 24.4224 36.0182C24.4565 36.0858 24.4707 36.176 24.4707 36.283V36.3788L24.4735 36.376Z" fill="#221E1F"/>
<path d="M27.1072 35.1016C27.3286 35.1016 27.5414 35.1325 27.7429 35.1973C27.9444 35.2621 28.1232 35.3607 28.2764 35.4959C28.4296 35.6311 28.5488 35.8058 28.6396 36.0199C28.7276 36.234 28.773 36.4903 28.773 36.7945V37.4396C28.773 37.7466 28.7276 38.0058 28.6396 38.2227C28.5517 38.4368 28.4296 38.6114 28.2792 38.7438C28.1288 38.8762 27.9529 38.9748 27.7486 39.0368C27.5471 39.0987 27.3342 39.1297 27.1072 39.1297C26.8802 39.1297 26.6674 39.0987 26.4659 39.0368C26.2644 38.9748 26.0856 38.879 25.9352 38.7438C25.7848 38.6114 25.6628 38.4368 25.5748 38.2227C25.484 38.0058 25.4414 37.7466 25.4414 37.4396V36.7945C25.4414 36.4903 25.4868 36.234 25.5748 36.0199C25.6628 35.8058 25.7848 35.634 25.938 35.4959C26.0913 35.3607 26.2672 35.2621 26.4687 35.1973C26.6702 35.1354 26.883 35.1016 27.1044 35.1016H27.1072ZM27.1072 38.4931C27.2406 38.4931 27.3683 38.4762 27.4846 38.4424C27.601 38.4086 27.7032 38.3466 27.7911 38.2621C27.8791 38.1748 27.9472 38.0593 27.9955 37.91C28.0437 37.7607 28.0692 37.5748 28.0692 37.3523V36.8818C28.0692 36.6565 28.0437 36.4706 27.9955 36.3241C27.9472 36.1748 27.8791 36.0593 27.7911 35.972C27.7032 35.8847 27.601 35.8255 27.4846 35.7889C27.3683 35.7551 27.2434 35.7382 27.1072 35.7382C26.971 35.7382 26.8518 35.7551 26.7355 35.7889C26.6191 35.8227 26.5169 35.8847 26.429 35.972C26.341 36.0593 26.2729 36.1748 26.2218 36.3241C26.1707 36.4734 26.1452 36.6565 26.1452 36.8818V37.3523C26.1452 37.5776 26.1707 37.7635 26.2218 37.91C26.2729 38.0593 26.341 38.1748 26.429 38.2621C26.5169 38.3495 26.6191 38.4086 26.7355 38.4424C26.8518 38.4762 26.9738 38.4931 27.1072 38.4931Z" fill="#221E1F"/>
<path d="M32.5387 38.4942H30.9354L32.0932 37.3336C32.2777 37.1505 32.4195 36.9618 32.516 36.7674C32.6125 36.5731 32.6608 36.3703 32.6608 36.159V36.1055C32.6608 35.9731 32.6352 35.8435 32.587 35.7252C32.5387 35.6041 32.4621 35.497 32.3571 35.4069C32.2521 35.3139 32.1216 35.2407 31.9627 35.1872C31.8037 35.1336 31.6108 35.1055 31.3894 35.1055C31.1879 35.1055 31.0148 35.1308 30.8673 35.1872C30.7197 35.2435 30.592 35.3083 30.4841 35.39C30.3763 35.4717 30.2883 35.5618 30.2174 35.6576C30.1464 35.7562 30.0868 35.8463 30.0414 35.928L30.5664 36.2688C30.6317 36.1562 30.697 36.0632 30.7651 35.9928C30.8332 35.9196 30.9013 35.866 30.9694 35.8238C31.0375 35.7843 31.1085 35.7562 31.1794 35.7421C31.2504 35.728 31.3213 35.7196 31.3951 35.7196C31.5994 35.7196 31.7441 35.7618 31.8293 35.8463C31.9144 35.9308 31.957 36.0266 31.957 36.1308V36.1731C31.957 36.2266 31.9541 36.2829 31.9456 36.3421C31.9371 36.4012 31.9173 36.4632 31.886 36.5308C31.852 36.5984 31.8037 36.6773 31.7385 36.7646C31.6732 36.8519 31.5852 36.9534 31.4717 37.0689L30.1464 38.4238L30.1039 38.466C30.1039 38.466 30.0897 38.4829 30.084 38.4914C30.0727 38.5083 30.0641 38.5252 30.0556 38.5421C30.0358 38.5843 30.0244 38.6322 30.0244 38.6829V39.066H32.8083V38.7787C32.8083 38.6266 32.6891 38.5027 32.5387 38.4914V38.4942Z" fill="#221E1F"/>
<path d="M35.9215 37.4181C35.9215 37.9731 35.8024 38.3984 35.5668 38.6914C35.3313 38.9843 34.9737 39.1308 34.4969 39.1308C34.0202 39.1308 33.6655 38.9815 33.4101 38.6858C33.1547 38.39 33.0298 37.9674 33.0298 37.4181V36.8125C33.0298 36.2632 33.1547 35.8407 33.4101 35.5477C33.6626 35.2548 34.0202 35.1055 34.4828 35.1055C34.9453 35.1055 35.3057 35.2519 35.5526 35.5477C35.7995 35.8407 35.9244 36.2632 35.9244 36.8125V37.4181H35.9215ZM35.2178 36.8069C35.2178 36.5843 35.1979 36.4012 35.1553 36.266C35.1128 36.128 35.0588 36.0238 34.9907 35.9477C34.9226 35.8745 34.846 35.8238 34.7552 35.7984C34.6672 35.7731 34.5736 35.759 34.4799 35.759C34.3863 35.759 34.2983 35.7731 34.2103 35.7984C34.1195 35.8238 34.0401 35.8745 33.9691 35.9505C33.8982 36.0266 33.8414 36.1336 33.796 36.2717C33.7534 36.4069 33.7307 36.5872 33.7307 36.8069V37.4238C33.7307 37.6463 33.7534 37.8294 33.7988 37.9646C33.8442 38.1027 33.9038 38.2097 33.9776 38.2858C34.0514 38.3618 34.1309 38.4125 34.2245 38.4379C34.3153 38.4632 34.4061 38.4745 34.4969 38.4745C34.5878 38.4745 34.6814 38.4632 34.7694 38.4379C34.8574 38.4125 34.934 38.3618 34.9992 38.2886C35.0645 38.2153 35.1184 38.1083 35.1582 37.9731C35.1979 37.835 35.2178 37.6548 35.2178 37.4266V36.8097V36.8069Z" fill="#221E1F"/>
<path d="M38.5806 37.3354C38.4557 37.1776 38.2656 37.0734 38.0017 37.0255C38.1152 36.9833 38.206 36.9269 38.2798 36.8593C38.3536 36.7917 38.4103 36.7156 38.4557 36.634C38.4983 36.5523 38.5295 36.4678 38.5465 36.3776C38.5636 36.2903 38.5721 36.2086 38.5721 36.1325V36.079C38.5721 35.9354 38.5437 35.803 38.4841 35.679C38.4245 35.5579 38.3422 35.4565 38.2372 35.3692C38.1322 35.2847 38.0045 35.2199 37.8541 35.172C37.7065 35.1241 37.5363 35.1016 37.3518 35.1016C37.068 35.1016 36.8353 35.1523 36.6537 35.2565C36.4721 35.3607 36.316 35.4959 36.1854 35.6649L36.6594 36.0311C36.7473 35.9382 36.841 35.8593 36.946 35.7973C37.051 35.7354 37.1844 35.7044 37.3518 35.7044C37.5192 35.7044 37.6469 35.7382 37.7406 35.8058C37.8371 35.8734 37.8853 35.9804 37.8853 36.1269V36.1692C37.8853 36.2537 37.8768 36.3297 37.8598 36.4002C37.8427 36.4706 37.8144 36.5297 37.769 36.5776C37.7264 36.6255 37.664 36.6649 37.5873 36.6903C37.5079 36.7185 37.4086 36.7297 37.2837 36.7297H37.0709C36.9375 36.7438 36.8296 36.8452 36.8126 36.9776V37.3241H37.3404C37.593 37.3241 37.7746 37.3692 37.8853 37.4565C37.9988 37.5438 38.0556 37.6847 38.0556 37.8762V37.9466C38.0556 38.1213 37.996 38.2565 37.8796 38.3523C37.7633 38.4509 37.5817 38.4987 37.3348 38.4987C37.2553 38.4987 37.1815 38.4931 37.1106 38.4818C37.0396 38.4706 36.9687 38.4509 36.8977 38.4255C36.824 38.3973 36.7502 38.3607 36.6707 38.3156C36.5913 38.2678 36.5061 38.2114 36.4125 38.141L36.0691 38.6818C36.2536 38.8311 36.455 38.9382 36.665 39.0086C36.8779 39.079 37.0992 39.1156 37.3291 39.1156C37.559 39.1156 37.7803 39.0847 37.9591 39.0199C38.1379 38.9579 38.2883 38.8734 38.4075 38.7692C38.5238 38.6649 38.6146 38.5438 38.6714 38.4058C38.7281 38.2678 38.7594 38.1269 38.7594 37.9776V37.8959C38.7594 37.6706 38.6969 37.4818 38.5749 37.3213L38.5806 37.3354Z" fill="#221E1F"/>
<path d="M42.0001 37.4181C42.0001 37.9731 41.8809 38.3984 41.6453 38.6914C41.4098 38.9843 41.0522 39.1308 40.5755 39.1308C40.0987 39.1308 39.744 38.9815 39.4886 38.6858C39.2332 38.39 39.1055 37.9674 39.1055 37.4181V36.8125C39.1055 36.2632 39.2332 35.8407 39.4857 35.5477C39.7383 35.2548 40.0959 35.1055 40.5584 35.1055C41.021 35.1055 41.3814 35.2519 41.6283 35.5477C41.8752 35.8407 42.0001 36.2632 42.0001 36.8125V37.4181ZM41.2963 36.8069C41.2963 36.5843 41.2764 36.4012 41.2338 36.266C41.1913 36.128 41.1374 36.0238 41.0693 35.9477C41.0011 35.8745 40.9245 35.8238 40.8337 35.7984C40.7457 35.7731 40.6521 35.759 40.5584 35.759C40.4648 35.759 40.3768 35.7731 40.2888 35.7984C40.2009 35.8238 40.1186 35.8745 40.0476 35.9505C39.9767 36.0266 39.9199 36.1336 39.8745 36.2717C39.8291 36.4069 39.8093 36.5872 39.8093 36.8069V37.4238C39.8093 37.6463 39.832 37.8294 39.8774 37.9646C39.9228 38.1027 39.9824 38.2097 40.0533 38.2858C40.1243 38.3618 40.2065 38.4125 40.2974 38.4379C40.3882 38.4632 40.479 38.4745 40.5698 38.4745C40.6606 38.4745 40.7543 38.4632 40.8422 38.4379C40.9302 38.4125 41.0068 38.3618 41.0721 38.2886C41.1374 38.2153 41.1913 38.1083 41.231 37.9731C41.2707 37.835 41.2906 37.6548 41.2906 37.4266V36.8097L41.2963 36.8069Z" fill="#221E1F"/>
<path d="M4.78174 40.5938H5.87998C6.60931 40.5938 6.97255 40.8895 6.97255 41.4867V41.5938C6.97255 41.6754 6.96403 41.7543 6.94417 41.8304C6.92431 41.9064 6.89309 41.9768 6.85052 42.0416C6.80795 42.1064 6.7512 42.1628 6.68025 42.2107C6.60931 42.2585 6.52133 42.298 6.41917 42.3261C6.62917 42.3599 6.79944 42.4445 6.93282 42.5797C7.06336 42.7149 7.13147 42.9092 7.13147 43.1628V43.2895C7.13147 43.5909 7.04066 43.8247 6.86187 43.9966C6.68309 44.1656 6.40498 44.2529 6.02755 44.2529H4.78174V40.6022V40.5938ZM5.11093 40.9036V42.1881H5.88849C6.12687 42.1881 6.31133 42.1459 6.44187 42.0557C6.57241 41.9684 6.63768 41.8107 6.63768 41.5797V41.4895C6.63768 41.2726 6.57525 41.1233 6.45039 41.0332C6.32552 40.9459 6.12687 40.9008 5.85728 40.9008H5.11377L5.11093 40.9036ZM5.11093 43.9318H5.99917C6.26876 43.9318 6.47025 43.8754 6.59795 43.7684C6.72566 43.6585 6.79093 43.4952 6.79093 43.2811V43.1684C6.79093 43.0585 6.77674 42.9599 6.74836 42.8754C6.71998 42.7909 6.6689 42.7205 6.60079 42.6614C6.52985 42.605 6.43904 42.5599 6.32268 42.5318C6.20917 42.5036 6.06444 42.4895 5.89417 42.4895H5.11093V43.9318Z" fill="#221E1F"/>
<path d="M8.92501 43.9825C9.22299 43.9825 9.44717 43.8811 9.59474 43.6783C9.74231 43.4754 9.81609 43.1459 9.81609 42.6895V40.5938H10.1453V42.8219C10.1453 43.329 10.0374 43.7008 9.82461 43.9402C9.60893 44.1797 9.31096 44.3008 8.92501 44.3008C8.53907 44.3008 8.23542 44.1797 8.02258 43.9402C7.80974 43.7008 7.7019 43.329 7.7019 42.8219V40.5938H8.03109V42.6895C8.03109 43.1459 8.10488 43.4754 8.25244 43.6783C8.40001 43.8811 8.6242 43.9825 8.92501 43.9825Z" fill="#221E1F"/>
<path d="M11.9701 43.9701C12.1035 43.9701 12.2227 43.9531 12.3305 43.9193C12.4383 43.8855 12.5291 43.8405 12.6029 43.7813C12.6767 43.7222 12.7335 43.6546 12.7732 43.5785C12.8129 43.5024 12.83 43.4236 12.83 43.3447V43.2377C12.83 43.1531 12.8186 43.0771 12.7931 43.0095C12.7675 42.9419 12.7221 42.8799 12.654 42.8264C12.5859 42.77 12.4951 42.7193 12.3787 42.6743C12.2624 42.6292 12.112 42.5841 11.9275 42.5391C11.726 42.4912 11.5586 42.4377 11.4252 42.3757C11.289 42.3137 11.1812 42.2405 11.1017 42.1644C11.0194 42.0855 10.9627 41.9954 10.9286 41.8996C10.8946 41.8039 10.8775 41.6996 10.8775 41.5841V41.4686C10.8775 41.3306 10.9059 41.2039 10.9598 41.0912C11.0166 40.9785 11.0932 40.8799 11.1925 40.7982C11.2919 40.7165 11.411 40.6546 11.5501 40.6067C11.6891 40.5616 11.8396 40.5391 12.0013 40.5391C12.234 40.5391 12.4327 40.5672 12.5973 40.6264C12.7619 40.6855 12.9037 40.7588 13.0229 40.8461L12.8669 41.1362C12.7562 41.0517 12.6285 40.9841 12.4837 40.9362C12.3419 40.8884 12.1801 40.863 12.0013 40.863C11.8963 40.863 11.797 40.8771 11.7005 40.9024C11.604 40.9306 11.5217 40.9701 11.4508 41.0208C11.3798 41.0743 11.3202 41.1362 11.2777 41.2095C11.2351 41.2827 11.2152 41.3672 11.2152 41.463V41.5644C11.2152 41.6433 11.2294 41.7137 11.255 41.7785C11.2833 41.8433 11.3259 41.8996 11.3883 41.9503C11.4508 42.001 11.5331 42.0489 11.6381 42.0912C11.7431 42.1362 11.8736 42.1757 12.0297 42.2123C12.251 42.2658 12.4355 42.325 12.5831 42.3869C12.7278 42.4489 12.847 42.5222 12.9321 42.601C13.0173 42.6827 13.0797 42.7729 13.1137 42.8743C13.1478 42.9757 13.1677 43.094 13.1677 43.2236V43.3391C13.1677 43.4715 13.1393 43.5926 13.0854 43.7081C13.0314 43.8236 12.9548 43.925 12.8527 44.0123C12.7533 44.0996 12.6285 44.1672 12.4809 44.2208C12.3333 44.2715 12.1659 44.2968 11.9814 44.2968C11.7516 44.2968 11.5387 44.2602 11.3401 44.1869C11.1414 44.1137 10.9655 44.0151 10.8123 43.8912L10.9854 43.5926C11.1585 43.725 11.3259 43.8179 11.4905 43.8771C11.6551 43.9362 11.814 43.9672 11.9701 43.9672V43.9701Z" fill="#221E1F"/>
<path d="M16.4594 44.2445H16.1018L15.7216 43.1121H14.2658L13.8741 44.2445H13.5308L14.8106 40.5938H15.1881L16.4622 44.2445H16.4594ZM14.3679 42.8022H15.6137L15.2789 41.8135C15.2562 41.7543 15.2363 41.6923 15.2164 41.636C15.1966 41.5797 15.1767 41.5149 15.154 41.4473C15.1313 41.3768 15.1086 41.3008 15.0831 41.2135C15.0575 41.129 15.0263 41.0247 14.9922 40.9064C14.961 41.0247 14.9327 41.1261 14.9071 41.2135C14.8816 41.3008 14.8589 41.3768 14.8362 41.4473C14.8135 41.5149 14.7936 41.5797 14.7737 41.636C14.7539 41.6923 14.734 41.7543 14.7113 41.8135L14.3679 42.8022Z" fill="#221E1F"/>
<path d="M16.9617 40.5938H17.359L18.9396 43.4501C18.968 43.5008 18.9936 43.5515 19.0163 43.5994C19.039 43.6473 19.0673 43.7121 19.1014 43.7909V40.5966H19.4221V44.2473H19.0248L17.4413 41.3825C17.4129 41.329 17.3873 41.2783 17.3646 41.236C17.3419 41.1937 17.3136 41.1318 17.2823 41.0529V44.2473H16.9617V40.5966V40.5938Z" fill="#221E1F"/>
<path d="M20.2423 43.8594H20.6623L20.3189 44.9974H20.0408L20.2423 43.8594Z" fill="#221E1F"/>
<path d="M23.5882 42.1543L25.1121 44.2445H24.6836L23.3526 42.4107L22.9127 42.8923V44.2445H22.5779V40.5938H22.9127V42.4388L24.5729 40.5938H25.0213L23.5882 42.1543Z" fill="#221E1F"/>
<path d="M26.7154 40.5391C26.9283 40.5391 27.1184 40.5757 27.283 40.6517C27.4476 40.7278 27.5895 40.8377 27.703 40.9785C27.8165 41.1193 27.9045 41.2912 27.9641 41.494C28.0237 41.694 28.0549 41.9193 28.0549 42.1701V42.6715C28.0549 42.9193 28.0237 43.1475 27.9641 43.3475C27.9045 43.5475 27.8165 43.7193 27.703 43.8602C27.5895 44.001 27.4476 44.1109 27.283 44.1869C27.1184 44.263 26.9283 44.3024 26.7154 44.3024C26.5026 44.3024 26.3125 44.2658 26.1479 44.1869C25.9833 44.1109 25.8414 44.0039 25.7279 43.8602C25.6144 43.7193 25.5264 43.5475 25.4668 43.3475C25.4072 43.1475 25.376 42.9222 25.376 42.6715V42.1701C25.376 41.9193 25.4044 41.694 25.464 41.494C25.5235 41.294 25.6087 41.1222 25.725 40.9785C25.8385 40.8377 25.9804 40.7278 26.1479 40.6517C26.3153 40.5757 26.5054 40.5391 26.7183 40.5391H26.7154ZM26.7154 43.9813C27.0248 43.9813 27.2688 43.8686 27.4476 43.6405C27.6264 43.4123 27.7172 43.0799 27.7172 42.6405V42.201C27.7172 41.7616 27.6264 41.4292 27.4476 41.201C27.2688 40.9729 27.0219 40.8602 26.7154 40.8602C26.4089 40.8602 26.1621 40.9729 25.9833 41.201C25.8045 41.4292 25.7137 41.7616 25.7137 42.201V42.6405C25.7137 43.0799 25.8045 43.4123 25.9833 43.6405C26.1621 43.8686 26.4089 43.9813 26.7154 43.9813Z" fill="#221E1F"/>
<path d="M30.0867 42.6642C30.064 42.6642 30.0442 42.6698 30.0215 42.6698H29.0963V44.2445H28.7615V40.5938H29.9505C30.1236 40.5938 30.274 40.6191 30.4103 40.667C30.5436 40.7177 30.6572 40.7853 30.7508 40.8754C30.8444 40.9656 30.9154 41.0698 30.9636 41.1909C31.0119 41.3121 31.0346 41.4445 31.0346 41.5853V41.6614C31.0346 41.8839 30.9778 42.0754 30.8671 42.236C30.7565 42.3966 30.6032 42.5149 30.4131 42.5881L31.1055 44.2445H30.748L30.0839 42.6642H30.0867ZM29.0992 40.9121V42.3515H29.854C30.152 42.3515 30.3677 42.2895 30.5011 42.1684C30.6316 42.0445 30.6997 41.8726 30.6997 41.6501V41.5994C30.6997 41.3881 30.6344 41.2191 30.5067 41.098C30.3762 40.9768 30.1776 40.9149 29.908 40.9149H29.102L29.0992 40.9121Z" fill="#221E1F"/>
<path d="M33.8441 40.5938V40.9092H32.1073V42.2163H33.7448V42.5318H32.1073V43.9346H33.8781V44.2473H31.7725V40.5966H33.8441V40.5938Z" fill="#221E1F"/>
<path d="M37.2181 44.2445H36.8605L36.4774 43.1121H35.0216L34.63 44.2445H34.2866L35.5665 40.5938H35.9439L37.2181 44.2445ZM35.1266 42.8022H36.3724L36.0376 41.8135C36.0149 41.7543 35.995 41.6923 35.9751 41.636C35.9553 41.5797 35.9354 41.5149 35.9127 41.4473C35.89 41.3768 35.8673 41.3008 35.8418 41.2135C35.8162 41.129 35.785 41.0247 35.7509 40.9064C35.7197 41.0247 35.6914 41.1261 35.6658 41.2135C35.6403 41.3008 35.6176 41.3768 35.5949 41.4473C35.5722 41.5149 35.5523 41.5797 35.5324 41.636C35.5126 41.6923 35.4927 41.7543 35.47 41.8135L35.1266 42.8022Z" fill="#221E1F"/>
<path d="M14.7114 1.3493C14.7114 0.602817 15.3187 0 16.0708 0C16.8228 0 17.4329 0.605634 17.4329 1.3493C17.4329 2.09296 16.8228 2.69859 16.0708 2.69859C15.3187 2.69859 14.7114 2.09577 14.7114 1.3493Z" fill="#0047BA"/>
<path d="M16.0707 6.80457C13.9282 6.80457 11.7828 5.9933 10.151 4.37358C9.62317 3.84964 9.62317 2.99893 10.151 2.47499C10.6788 1.95105 11.5359 1.95105 12.0637 2.47499C14.2744 4.66936 17.8699 4.66936 20.0806 2.47499C20.6084 1.95105 21.4655 1.95105 21.9933 2.47499C22.5211 2.99893 22.5211 3.84964 21.9933 4.37358C20.3615 5.9933 18.2161 6.80457 16.0736 6.80457H16.0707Z" fill="#0047BA"/>
<path d="M27.3598 5.49383C27.3598 6.24031 26.7525 6.84312 26.0004 6.84312C25.2484 6.84312 24.6411 6.24031 24.6411 5.49383C24.6411 4.74735 25.2512 4.14453 26.0004 4.14453C26.7496 4.14453 27.3598 4.75017 27.3598 5.49383Z" fill="#0047BA"/>
<path d="M21.037 4.76269C20.6908 4.76269 20.3446 4.63311 20.0807 4.37114C19.5529 3.84719 19.5529 2.99649 20.0807 2.47255C23.3442 -0.76689 28.6566 -0.76689 31.9202 2.47255C32.448 2.99649 32.448 3.84719 31.9202 4.37114C31.3923 4.89508 30.5353 4.89508 30.0075 4.37114C27.7968 2.17677 24.2012 2.17677 21.9906 4.37114C21.7266 4.63311 21.3804 4.76269 21.0342 4.76269H21.037Z" fill="#0047BA"/>
<path d="M14.7114 22.8923C14.7114 22.1458 15.3187 21.543 16.0708 21.543C16.8228 21.543 17.4329 22.1458 17.4329 22.8923C17.4329 23.6387 16.8228 24.2416 16.0708 24.2416C15.3187 24.2416 14.7114 23.6359 14.7114 22.8923Z" fill="#3CB4E5"/>
<path d="M16.0707 28.3436C13.9282 28.3436 11.7828 27.5324 10.151 25.9126C9.62317 25.3887 9.62317 24.538 10.151 24.0141C10.6788 23.4901 11.5359 23.4901 12.0637 24.0141C14.2744 26.2084 17.8699 26.2084 20.0806 24.0141C20.6084 23.4901 21.4655 23.4901 21.9933 24.0141C22.5211 24.538 22.5211 25.3887 21.9933 25.9126C20.3615 27.5324 18.2161 28.3436 16.0736 28.3436H16.0707Z" fill="#3CB4E5"/>
<path d="M27.3598 27.0368C27.3598 27.7833 26.7525 28.3861 26.0004 28.3861C25.2484 28.3861 24.6411 27.7833 24.6411 27.0368C24.6411 26.2903 25.2512 25.6875 26.0004 25.6875C26.7496 25.6875 27.3598 26.2931 27.3598 27.0368Z" fill="#3CB4E5"/>
<path d="M21.037 26.3046C20.6908 26.3046 20.3446 26.175 20.0807 25.9102C19.5529 25.3863 19.5529 24.5356 20.0807 24.0116C23.3442 20.7722 28.6566 20.7722 31.9202 24.0116C32.448 24.5356 32.448 25.3863 31.9202 25.9102C31.3923 26.4341 30.5353 26.4341 30.0075 25.9102C27.7968 23.7158 24.2012 23.7158 21.9906 25.9102C21.7266 26.1722 21.3804 26.3046 21.0342 26.3046H21.037Z" fill="#3CB4E5"/>
<path d="M19.6748 14.197C19.6748 13.4505 20.2849 12.8477 21.0341 12.8477C21.7833 12.8477 22.3935 13.4533 22.3935 14.197C22.3935 14.9406 21.7833 15.5462 21.0341 15.5462C20.2849 15.5462 19.6748 14.9406 19.6748 14.197Z" fill="#B9C6D7"/>
<path d="M32.3258 18.9391C32.3258 19.6856 31.7185 20.2884 30.9665 20.2884C30.2145 20.2884 29.6072 19.6856 29.6072 18.9391C29.6072 18.1927 30.2173 17.5898 30.9665 17.5898C31.7157 17.5898 32.3258 18.1927 32.3258 18.9391Z" fill="#B9C6D7"/>
<path d="M26.0004 18.208C25.6542 18.208 25.308 18.0784 25.0441 17.8165C24.5162 17.2925 24.5162 16.4418 25.0441 15.9179C28.3104 12.6784 33.62 12.6784 36.8864 15.9179C37.4142 16.4418 37.4142 17.2925 36.8864 17.8165C36.3585 18.3404 35.5015 18.3404 34.9737 17.8165C32.763 15.6221 29.1674 15.6221 26.9568 17.8165C26.6929 18.0784 26.3466 18.208 26.0004 18.208Z" fill="#B9C6D7"/>
<path d="M12.4667 18.9391C12.4667 19.6856 11.8566 20.2884 11.1074 20.2884C10.3582 20.2884 9.74805 19.6856 9.74805 18.9391C9.74805 18.1927 10.3582 17.5898 11.1074 17.5898C11.8566 17.5898 12.4667 18.1927 12.4667 18.9391Z" fill="#B9C6D7"/>
<path d="M6.14398 18.208C5.79776 18.208 5.45155 18.0784 5.18763 17.8165C4.65979 17.2925 4.65979 16.4418 5.18763 15.9179C8.45114 12.6784 13.7636 12.6784 17.0299 15.9179C17.5578 16.4418 17.5578 17.2925 17.0299 17.8165C16.5021 18.3404 15.6451 18.3404 15.1172 17.8165C12.9065 15.6221 9.31101 15.6221 7.10033 17.8165C6.83641 18.0784 6.49019 18.208 6.14398 18.208Z" fill="#B9C6D7"/>
<path d="M21.037 20.246C18.8916 20.246 16.7491 19.4347 15.1173 17.815C14.5895 17.291 14.5895 16.4403 15.1173 15.9164C15.6452 15.3925 16.5022 15.3925 17.03 15.9164C19.2407 18.1108 22.8362 18.1108 25.0469 15.9164C25.5747 15.3925 26.4318 15.3925 26.9596 15.9164C27.4874 16.4403 27.4874 17.291 26.9596 17.815C25.3279 19.4347 23.1824 20.246 21.0399 20.246H21.037Z" fill="#B9C6D7"/>
<path d="M9.74805 9.45476C9.74805 8.70829 10.3553 8.10547 11.1074 8.10547C11.8594 8.10547 12.4667 8.7111 12.4667 9.45476C12.4667 10.1984 11.8566 10.8041 11.1074 10.8041C10.3582 10.8041 9.74805 10.1984 9.74805 9.45476Z" fill="#00ADBB"/>
<path d="M11.1074 14.9072C8.96195 14.9072 6.81938 14.0988 5.18763 12.479C4.65979 11.9551 4.65979 11.1044 5.18763 10.5805C5.71546 10.0565 6.57249 10.0565 7.10033 10.5805C9.31101 12.7748 12.9065 12.7748 15.1172 10.5805C15.6451 10.0565 16.5021 10.0565 17.0299 10.5805C17.5578 11.1044 17.5578 11.9551 17.0299 12.479C15.3982 14.0988 13.2528 14.9072 11.1102 14.9072H11.1074Z" fill="#00ADBB"/>
<path d="M29.6045 9.45476C29.6045 8.70829 30.2118 8.10547 30.9638 8.10547C31.7158 8.10547 32.3231 8.7111 32.3231 9.45476C32.3231 10.1984 31.713 10.8041 30.9638 10.8041C30.2146 10.8041 29.6045 10.1984 29.6045 9.45476Z" fill="#00ADBB"/>
<path d="M30.9638 14.9072C28.8212 14.9072 26.6758 14.0988 25.0441 12.479C24.5162 11.9551 24.5162 11.1044 25.0441 10.5805C25.5719 10.0565 26.4289 10.0565 26.9568 10.5805C29.1674 12.7748 32.763 12.7748 34.9737 10.5805C35.5015 10.0565 36.3585 10.0565 36.8864 10.5805C37.4142 11.1044 37.4142 11.9551 36.8864 12.479C35.2546 14.0988 33.1092 14.9072 30.9666 14.9072H30.9638Z" fill="#00ADBB"/>
<path d="M16.0707 12.8682C15.7245 12.8682 15.3783 12.7386 15.1144 12.4766C14.5865 11.9527 14.5865 11.102 15.1144 10.578C18.3779 7.33858 23.6903 7.33858 26.9538 10.578C27.4817 11.102 27.4817 11.9527 26.9538 12.4766C26.426 13.0006 25.569 13.0006 25.0411 12.4766C22.8305 10.2822 19.2349 10.2822 17.0243 12.4766C16.7603 12.7386 16.4141 12.8682 16.0679 12.8682H16.0707Z" fill="#00ADBB"/>
<rect x="54" y="6.5" width="1" height="32" fill="#E1E1E1"/>
<path d="M73.4725 30.4519C72.2509 29.8875 71.2435 29.4289 71.2435 28.5047C71.2435 27.7992 71.8151 27.2842 72.9438 27.2842C73.3148 27.2773 73.6856 27.3057 74.0511 27.3688C74.2301 27.4036 74.4118 27.4225 74.5941 27.4253C75.58 27.4253 76.1372 26.8468 76.5087 25.7462L76.6659 25.2947C75.4359 24.8019 74.1212 24.548 72.7938 24.5469C69.4433 24.5469 67.7144 26.6634 67.7144 28.8716C67.6837 29.8027 68.0074 30.7113 68.6217 31.4184C69.3772 32.1903 70.2838 32.8024 71.2864 33.2174C72.6652 33.9229 73.9083 34.3815 73.9083 35.3691C73.9083 36.251 72.9867 36.7801 71.7651 36.7801C70.5751 36.7216 69.4218 36.3542 68.4217 35.7148L67 38.2405C68.5054 39.0987 70.2201 39.5331 71.9579 39.4963C75.0727 39.4963 77.4374 37.7255 77.4374 35.0093C77.4374 32.2932 75.2513 31.2984 73.4725 30.4519Z" fill="#EA002C"/>
<path d="M85.6814 31.7168L91.3467 24.8594H87.3103L82.7953 30.7785H82.7167V24.8594H79.4019V39.3643H79.6019C81.0307 39.3643 82.7524 38.7082 82.7524 36.3378V33.0149H82.8167L87.4174 39.195H91.6538L85.6814 31.7168Z" fill="#EA002C"/>
<path d="M91.5321 9.30469C90.3605 9.52339 88.6245 10.5746 88.6317 12.43C88.6317 14.1162 90.0605 15.1321 90.0605 17.3685C90.0684 18.0524 89.8944 18.7264 89.5559 19.3231C89.2174 19.9198 88.7263 20.4184 88.1316 20.769C88.5388 20.7337 88.9817 20.7125 89.4747 20.7125C90.036 20.7057 90.597 20.7387 91.1535 20.8113L96.4044 14.4618C95.0782 12.4902 93.432 10.7478 91.5321 9.30469Z" fill="#EA002C"/>
<path d="M95.9472 26.489C96.6044 25.4731 96.6616 23.8575 96.7473 22.2066C96.8045 20.6686 97.1331 19.5046 99.2191 19.5046C99.6764 19.5046 100.119 19.561 100.919 19.561C103.135 19.5528 105.307 18.9532 107.206 17.8255C103.966 15.7667 100.232 14.5911 96.383 14.418C96.0829 15.2505 93.754 21.6352 93.5825 22.1784C93.9394 22.6021 94.2551 23.0579 94.5255 23.54C95.1045 24.4701 95.5811 25.4587 95.9472 26.489Z" fill="#EA002C"/>
<path d="M84.8604 21.275C84.596 21.275 84.4603 21.0986 84.4246 20.8023C84.3889 20.506 83.0744 8.63251 82.8743 6.8335C82.8743 6.57247 82.7815 6.12801 82.7815 5.92341C82.7753 5.86935 82.781 5.81461 82.7981 5.76288C82.8151 5.71116 82.8432 5.66364 82.8805 5.62354C82.9177 5.58343 82.9632 5.55167 83.0139 5.53038C83.0646 5.50909 83.1193 5.49877 83.1744 5.50012C83.7959 5.50012 87.1893 6.28321 90.7899 8.77361C89.9852 8.97284 89.2676 9.42428 88.7447 10.0603C88.2218 10.6962 87.9217 11.4825 87.8894 12.3011C87.8894 14.2553 89.3182 15.3276 89.3182 17.2889C89.3254 20.506 85.6176 21.275 84.8604 21.275Z" fill="#F47725"/>
<path d="M96.2478 27.3718C96.2902 27.4969 96.3453 27.6174 96.4121 27.7316C96.4398 27.7928 96.485 27.8448 96.5421 27.8811C96.5991 27.9174 96.6657 27.9366 96.7336 27.9362C96.8387 27.9301 96.9412 27.9012 97.0336 27.8515C97.3123 27.7316 108.278 22.6873 109.929 21.9324C110.171 21.8196 110.643 21.622 110.772 21.5303C110.838 21.5003 110.894 21.4528 110.934 21.393C110.975 21.3332 110.998 21.2635 111 21.1917C111 21.1143 110.978 21.0385 110.936 20.973C110.063 19.9424 109.036 19.0481 107.893 18.3203C105.818 19.5704 103.443 20.2477 101.013 20.2816C100.213 20.2816 100.034 20.2322 99.484 20.2322C97.8909 20.2322 97.4909 20.9377 97.4337 22.2922C97.4337 22.5533 97.4337 22.906 97.398 23.294C97.348 24.4934 97.2051 26.2007 96.2478 27.3718Z" fill="#F47725"/>
<path d="M123 17.254L125.204 14.9767C126.642 13.4771 127.737 12.2551 127.737 10.9012C127.737 9.54735 127.063 9.03357 125.674 9.03357C124.881 9.03357 124.032 9.40155 123.442 9.79035L123.126 8.59617C123.8 8.17959 124.853 7.74219 126.039 7.74219C128.256 7.74219 129.407 8.86694 129.407 10.7207C129.407 12.5745 128.025 13.9839 126.544 15.5113L125.133 16.9069H129.555V18.1774H123V17.2679V17.254Z" fill="#211D1E"/>
<path d="M130.354 13.4224V12.6934C130.354 9.03444 132.214 7.75 134.312 7.75C136.411 7.75 138.186 9.04833 138.186 12.6378V13.4085C138.186 16.9702 136.446 18.3519 134.284 18.3519C132.123 18.3519 130.354 16.9286 130.354 13.4224ZM136.551 13.5682V12.6309C136.551 10.1384 135.772 8.99973 134.305 8.99973C132.839 8.99973 132.046 10.0828 132.046 12.5476V13.4849C132.046 15.9496 132.811 17.116 134.291 17.116C135.772 17.116 136.551 16.1024 136.551 13.5682Z" fill="#211D1E"/>
<path d="M138.53 17.5951L138.818 16.4287C139.379 16.7828 140.404 17.0535 141.183 17.0535C142.727 17.0535 143.576 16.4009 143.576 15.1998C143.576 13.9986 142.685 13.4779 141.26 13.464L140.25 13.4502V12.2421L141.155 12.2282C142.425 12.2143 143.246 11.6172 143.246 10.5758C143.246 9.45102 142.509 9.03444 141.316 9.03444C140.509 9.03444 139.73 9.34688 139.099 9.65931L138.909 8.46512C139.541 8.06938 140.727 7.75 141.702 7.75C143.604 7.75 144.853 8.65952 144.853 10.2981C144.853 11.5547 144.102 12.3185 142.937 12.7073C144.264 12.9641 145.225 13.707 145.225 15.2553C145.225 17.1091 143.772 18.3172 141.436 18.3172C140.193 18.3172 139.106 17.9908 138.523 17.5881L138.53 17.5951Z" fill="#211D1E"/>
<path d="M146.13 13.4224V12.6934C146.13 9.03444 147.99 7.75 150.088 7.75C152.187 7.75 153.962 9.04833 153.962 12.6378V13.4085C153.962 16.9702 152.222 18.3519 150.06 18.3519C147.899 18.3519 146.13 16.9286 146.13 13.4224ZM152.327 13.5682V12.6309C152.327 10.1384 151.548 8.99973 150.081 8.99973C148.615 8.99973 147.822 10.0828 147.822 12.5476V13.4849C147.822 15.9496 148.587 17.116 150.067 17.116C151.548 17.116 152.327 16.1024 152.327 13.5682Z" fill="#211D1E"/>
<path d="M161.717 20.0193V15.4717H156.362V14.222H168.692V15.4717H163.289V20.0193H161.717ZM157.885 12.6112V7.00824H159.443V8.63289H165.591V6.98047H167.163V12.6112H157.885ZM165.591 9.86179H159.443V11.3615H165.591V9.86179Z" fill="#211D1E"/>
<path d="M175.794 14.1928C174.643 13.7068 173.247 12.4987 172.657 11.1865C172.236 12.5959 170.784 14.0331 169.429 14.5746L168.475 13.3319C170.391 12.589 171.829 10.7977 171.829 8.70091V7.24984H173.443V8.63148C173.443 10.7699 175.114 12.4501 176.7 12.9778L175.794 14.1858V14.1928ZM170.671 19.5944V15.3036H172.243V18.3377H179.808V19.5944H170.678H170.671ZM179.401 10.4436H181.416V11.7419H179.401V16.2895H177.829V6.5H179.401V10.4436Z" fill="#211D1E"/>
<path d="M187.233 16.6575C186.272 16.0465 185.044 14.6163 184.644 13.2208C184.314 14.6857 183.219 16.1854 181.907 17.0116L180.959 15.9424C182.615 14.8732 183.886 12.7348 183.886 9.95758V7.83304H185.394V9.9437C185.394 12.5195 186.545 14.6024 188.145 15.5744L187.24 16.6575H187.233ZM188.559 19.3653V12.5126H186.601V11.2143H188.559V6.77077H190.04V19.3653H188.559ZM191.24 20.004V6.5H192.735V20.004H191.24Z" fill="#211D1E"/>
<path d="M199.381 8.12465C199.353 12.1724 197.697 15.1509 194.426 17.2824L193.388 16.1993C196.097 14.6024 197.654 12.1099 197.823 9.38826H194.195V8.1177H199.381V8.12465ZM201.037 19.3653V14.7204H199.163V13.4985H201.037V11.3323H199.493V10.1242H201.037V6.77077H202.518V19.3653H201.037ZM203.669 20.004V6.5H205.17V20.004H203.669Z" fill="#211D1E"/>
<path d="M206.497 13.5957V7.3401H208.069V9.33272H211.269V7.31232H212.841V13.5957H206.504H206.497ZM216.708 15.137V20.0248H215.122V16.3798H207.781V15.144H216.708V15.137ZM211.262 10.5477H208.062V12.3598H211.262V10.5477ZM216.694 11.1587V14.4358H215.108V6.5H216.694V9.86038H218.68V11.1587H216.694Z" fill="#211D1E"/>
<path d="M226.406 13.4777C225.037 13.7762 222.764 13.9498 220.764 13.9498H219.037V9.86038H223.487V8.45097H218.981V7.19429H225.059V11.0546H220.609V12.6931C222.406 12.6931 224.357 12.6792 226.209 12.2626L226.413 13.4707L226.406 13.4777ZM220.343 19.8166V15.1717H229.129V19.8166H220.343ZM227.543 16.3798H221.915V18.5877H227.543V16.3798ZM229.129 11.1934V14.4427H227.543V6.5H229.129V9.92287H231.115V11.2073H229.129V11.1934Z" fill="#211D1E"/>
<path d="M240.154 17.456C237.304 17.7962 234.294 17.8864 231.199 17.9142L230.953 16.6297C232.118 16.6297 233.374 16.6297 234.624 16.602V15.3522C233.129 15.1231 232.132 14.2553 232.132 13.1305C232.132 11.7905 233.515 10.8393 235.445 10.8393C237.375 10.8393 238.771 11.7975 238.771 13.1305C238.771 14.283 237.732 15.1509 236.196 15.3661V16.5464C237.592 16.477 239.017 16.3867 240.041 16.2479L240.154 17.456ZM231.424 10.3603V9.13832H239.431V10.3603H231.424ZM233.438 7.16652H237.41V8.40237H233.438V7.16652ZM235.438 12.0544C234.476 12.0544 233.739 12.4848 233.739 13.1236C233.739 13.7623 234.476 14.1928 235.438 14.1928C236.399 14.1928 237.164 13.7554 237.164 13.1236C237.164 12.4918 236.441 12.0544 235.438 12.0544ZM242.364 20.004H240.792V6.5H242.364V20.004Z" fill="#211D1E"/>
<path d="M247.887 19.9894V15.4001H244.876V14.1504H257.207V15.4001H254.154V19.9894H252.582V15.4001H249.459V19.9894H247.887ZM251.024 12.9076C248.07 12.9076 246.217 11.7273 246.217 9.94294C246.217 8.1586 248.077 6.99219 251.024 6.99219C253.971 6.99219 255.803 8.18637 255.803 9.94294C255.803 11.6995 253.971 12.9076 251.024 12.9076ZM251.024 8.26275C249.052 8.26275 247.845 8.97787 247.845 9.94294C247.845 10.908 249.052 11.6231 251.024 11.6231C252.996 11.6231 254.196 10.9219 254.196 9.94294C254.196 8.96398 252.989 8.26275 251.024 8.26275Z" fill="#211D1E"/>
<path d="M264.673 17.3796C263.319 16.7408 261.719 15.1995 261.291 13.8734C260.947 15.255 259.508 16.9213 257.936 17.7059L256.94 16.5811C259.017 15.498 260.456 13.6443 260.456 10.9227V10.8671H257.621V9.62432H264.877V10.8671H262.084V10.9227C262.084 13.6443 263.607 15.3106 265.509 16.2201L264.673 17.3726V17.3796ZM259.2 7.26372H263.277V8.50651H259.2V7.26372ZM266.702 20.004V6.5H268.274V20.004H266.702Z" fill="#211D1E"/>
<path d="M123.028 36.1116V35.0979C123.807 35.5006 124.811 35.7644 125.891 35.7644C127.477 35.7644 128.165 35.0354 128.165 33.9246C128.165 32.8831 127.66 32.4596 126.425 32.0569L125.414 31.7167C123.975 31.2446 123.168 30.5225 123.168 28.9673C123.168 27.4121 124.235 26.2734 126.369 26.2734C127.59 26.2734 128.312 26.5581 128.874 26.8289V27.8425C128.27 27.5718 127.463 27.2871 126.326 27.2871C125.07 27.2871 124.368 27.8981 124.368 28.8701C124.368 29.8421 124.74 30.2656 125.912 30.6544L126.923 30.9807C128.432 31.4945 129.4 32.1333 129.4 33.8482C129.4 35.5631 128.362 36.7989 125.961 36.7989C124.691 36.7989 123.716 36.5004 123.035 36.1116H123.028Z" fill="#211D1E"/>
<path d="M130.663 26.4531H131.87V36.6106H130.663V26.4531ZM132.074 31.4382L136.362 26.4531H137.674L133.498 31.3132L137.864 36.6106H136.439L132.074 31.4382Z" fill="#211D1E"/>
<path d="M138.888 36.6258V35.6607H144.334V32.4253H140.362V26.1836H149.548V27.1417H141.527V31.4741H149.618V32.4253H145.499V35.6607H150.987V36.6258H138.888Z" fill="#211D1E"/>
<path d="M154.474 28.2185V27.2604H162.278V28.2185H154.474ZM158.362 33.1619C156.594 33.1619 155.253 32.3079 155.253 30.9818C155.253 29.6557 156.58 28.7878 158.362 28.7878C160.145 28.7878 161.471 29.614 161.471 30.9818C161.471 32.3495 160.131 33.1619 158.362 33.1619ZM156.362 38.133V33.9881H164.833V38.133H156.362ZM158.362 29.6835C157.324 29.6835 156.376 30.1556 156.376 30.9818C156.376 31.808 157.338 32.2662 158.362 32.2662C159.387 32.2662 160.334 31.7802 160.334 30.9818C160.334 30.1834 159.415 29.6835 158.362 29.6835ZM156.502 26.3231V25.3511H160.25V26.3231H156.502ZM163.661 34.9254H157.527V37.1749H163.661V34.9254ZM164.825 29.9265V33.3007H163.675V25.0664H164.825V28.9545H166.868V29.9195H164.825V29.9265Z" fill="#211D1E"/>
<path d="M170.208 26.6711C170.208 29.9898 169.577 32.8017 167.605 35.1068L166.685 34.468C168.671 32.2879 169.078 29.4066 169.078 27.6431H167.177V26.6711H170.215H170.208ZM173.191 26.6711C173.177 28.0111 173.149 29.233 172.987 30.3925H174.714V25.3936H175.836V37.6618H174.714V31.3645H172.812C172.496 32.9336 171.878 34.3986 170.756 35.8844L169.787 35.2595C171.801 32.8364 172.075 29.8301 172.033 27.6501H170.798V26.678H173.191V26.6711ZM177.121 38.3283V25.0742H178.272V38.3283H177.121Z" fill="#211D1E"/>
<path d="M189.514 32.3832V35.5908H195.002V36.5629H182.903V35.5908H188.349V32.3832H184.349V26.2109H185.514V31.4112H193.654V32.3832H189.521H189.514Z" fill="#211D1E"/>
<path d="M202.504 32.4376C201.219 32.6529 198.946 32.7362 197.395 32.7362H195.809V28.6885H200.602V26.793H195.809V25.8418H201.774V29.6327H196.981V31.7989H197.444C199.262 31.7989 201.114 31.7572 202.413 31.5281L202.511 32.4376H202.504ZM206.279 33.9651V38.4363H205.114V34.9163H197.24V33.9581H206.286L206.279 33.9651ZM205.114 33.2361V30.7574H202.665V29.8201H205.114V28.0219H202.665V27.0707H205.114V25.0781H206.279V33.243H205.114V33.2361Z" fill="#211D1E"/>
<path d="M207.711 29.2053V28.2471H215.62V29.2053H207.711ZM211.697 35.5303C209.823 35.5303 208.574 34.35 208.574 32.7948C208.574 31.2395 209.83 30.0592 211.697 30.0592C213.563 30.0592 214.82 31.2395 214.82 32.7948C214.82 34.35 213.563 35.5303 211.697 35.5303ZM209.711 26.9696V25.9837H213.641V26.9696H209.711ZM211.697 31.0313C210.574 31.0313 209.739 31.7603 209.739 32.7948C209.739 33.8293 210.574 34.5722 211.697 34.5722C212.82 34.5722 213.655 33.8293 213.655 32.7948C213.655 31.7603 212.82 31.0313 211.697 31.0313ZM218.062 31.6284V38.3283H216.897V25.0742H218.062V30.6633H220.237V31.6353H218.062V31.6284Z" fill="#211D1E"/>
<path d="M225.936 26.1712C225.88 29.5455 223.95 31.788 220.981 33.1211L220.287 32.1977C222.764 31.3159 224.539 29.3927 224.708 27.1432H220.764V26.1712H225.936ZM226.252 37.2591C225.606 36.9189 224.883 36.2871 224.553 35.565C224.252 36.5648 223.101 37.8145 221.95 38.3561L221.241 37.5299C222.609 36.9466 223.922 35.5233 223.922 33.8987V33.3294H225.073V33.8154C225.073 35.2109 225.936 36.1135 226.974 36.4954L226.252 37.266V37.2591ZM229.017 32.6559H227.894V29.5108H225.88V28.5387H227.894V25.3172H229.017V32.6559ZM231.971 38.3005C231.052 37.8631 229.838 36.7592 229.508 35.7941C229.178 36.7939 228.125 37.9742 227.045 38.5019L226.308 37.7173C227.76 37.0161 228.911 35.6205 228.911 34.0098V33.3085H230.076V33.9473C230.076 35.5858 231.403 36.9952 232.666 37.4674L231.957 38.2936L231.971 38.3005ZM230.343 32.9128V25.0742H231.494V32.9128H230.343Z" fill="#211D1E"/>
<path d="M232.638 32.1834V31.2114H244.736V32.1834H232.638ZM243.557 30.163C241.529 29.795 239.354 28.5245 238.701 27.1567C238.112 28.5245 235.894 29.7811 233.859 30.163L233.311 29.1632C235.417 28.9341 238.09 27.5247 238.09 25.657V25.2266H239.298V25.657C239.298 27.5247 242.034 28.9341 244.091 29.1632L243.543 30.163H243.557ZM234.196 38.1404V33.1276H235.361V34.669H242.027V33.1137H243.192V38.1404H234.189H234.196ZM242.027 35.6063H235.361V37.1892H242.027V35.6063Z" fill="#211D1E"/>
<path d="M253.522 34.4463C251.965 34.8004 248.484 35.0573 246.421 35.0573H245.831V26.455H246.996V34.0506C248.722 34.0506 251.81 33.8076 253.403 33.4535L253.515 34.4533L253.522 34.4463ZM255.93 38.3205H254.779V25.0664H255.93V38.3205Z" fill="#211D1E"/>
<path d="M259.979 34.0922C261.705 34.0922 264.358 33.9325 265.635 33.6618L265.768 34.6199C264.33 34.8907 261.677 35.0781 259.347 35.0781H258.035V26.4619H264.386V27.427H259.2V34.0922H259.979ZM267.824 30.3292H270V31.2942H267.824V38.3205H266.673V25.0664H267.824V30.3222V30.3292Z" fill="#211D1E"/>
</svg>
